{
    "asset" : {
        "copyright" : "Eibriel",
        "generator" : "Khronos glTF Blender I/O v1.5.17",
        "version" : "2.0"
    },
    "scene" : 0,
    "scenes" : [
        {
            "name" : "Scene",
            "nodes" : [
                6
            ]
        }
    ],
    "nodes" : [
        {
            "mesh" : 0,
            "name" : "Antorcha",
            "translation" : [
                0,
                -0.7478704452514648,
                0
            ]
        },
        {
            "name" : "Fuego.001",
            "rotation" : [
                0,
                -0.030011707916855812,
                0,
                0.9995495676994324
            ],
            "scale" : [
                0.9999999403953552,
                1.030733585357666,
                0.9999999403953552
            ]
        },
        {
            "name" : "Fuego.002",
            "rotation" : [
                0,
                0.026074403896927834,
                0,
                0.9996600151062012
            ],
            "scale" : [
                1,
                0.7729436755180359,
                1
            ]
        },
        {
            "name" : "Chispas.001",
            "scale" : [
                0.7157894968986511,
                0.8760910034179688,
                0.7157894968986511
            ],
            "translation" : [
                0,
                1.3270657062530518,
                0
            ]
        },
        {
            "name" : "Chispas.002",
            "scale" : [
                0.9052631855010986,
                0.8405159115791321,
                0.9052631855010986
            ],
            "translation" : [
                0,
                1.3270657062530518,
                0
            ]
        },
        {
            "mesh" : 1,
            "name" : "Icosphere",
            "skin" : 0
        },
        {
            "children" : [
                0,
                5,
                1,
                2,
                3,
                4
            ],
            "name" : "Armature_Antorcha",
            "translation" : [
                0,
                0.7478704452514648,
                0
            ]
        }
    ],
    "animations" : [
        {
            "channels" : [
                {
                    "sampler" : 0,
                    "target" : {
                        "node" : 1,
                        "path" : "translation"
                    }
                },
                {
                    "sampler" : 1,
                    "target" : {
                        "node" : 1,
                        "path" : "rotation"
                    }
                },
                {
                    "sampler" : 2,
                    "target" : {
                        "node" : 1,
                        "path" : "scale"
                    }
                },
                {
                    "sampler" : 3,
                    "target" : {
                        "node" : 2,
                        "path" : "translation"
                    }
                },
                {
                    "sampler" : 4,
                    "target" : {
                        "node" : 2,
                        "path" : "rotation"
                    }
                },
                {
                    "sampler" : 5,
                    "target" : {
                        "node" : 2,
                        "path" : "scale"
                    }
                },
                {
                    "sampler" : 6,
                    "target" : {
                        "node" : 3,
                        "path" : "translation"
                    }
                },
                {
                    "sampler" : 7,
                    "target" : {
                        "node" : 3,
                        "path" : "rotation"
                    }
                },
                {
                    "sampler" : 8,
                    "target" : {
                        "node" : 3,
                        "path" : "scale"
                    }
                },
                {
                    "sampler" : 9,
                    "target" : {
                        "node" : 4,
                        "path" : "translation"
                    }
                },
                {
                    "sampler" : 10,
                    "target" : {
                        "node" : 4,
                        "path" : "rotation"
                    }
                },
                {
                    "sampler" : 11,
                    "target" : {
                        "node" : 4,
                        "path" : "scale"
                    }
                }
            ],
            "name" : "Antorcha",
            "samplers" : [
                {
                    "input" : 11,
                    "interpolation" : "LINEAR",
                    "output" : 12
                },
                {
                    "input" : 11,
                    "interpolation" : "LINEAR",
                    "output" : 13
                },
                {
                    "input" : 11,
                    "interpolation" : "LINEAR",
                    "output" : 14
                },
                {
                    "input" : 11,
                    "interpolation" : "LINEAR",
                    "output" : 15
                },
                {
                    "input" : 11,
                    "interpolation" : "LINEAR",
                    "output" : 16
                },
                {
                    "input" : 11,
                    "interpolation" : "LINEAR",
                    "output" : 17
                },
                {
                    "input" : 11,
                    "interpolation" : "LINEAR",
                    "output" : 18
                },
                {
                    "input" : 11,
                    "interpolation" : "LINEAR",
                    "output" : 19
                },
                {
                    "input" : 11,
                    "interpolation" : "LINEAR",
                    "output" : 20
                },
                {
                    "input" : 11,
                    "interpolation" : "LINEAR",
                    "output" : 21
                },
                {
                    "input" : 11,
                    "interpolation" : "LINEAR",
                    "output" : 22
                },
                {
                    "input" : 11,
                    "interpolation" : "LINEAR",
                    "output" : 23
                }
            ]
        }
    ],
    "materials" : [
        {
            "doubleSided" : true,
            "name" : "Color_Atlas",
            "pbrMetallicRoughness" : {
                "baseColorTexture" : {
                    "index" : 0
                },
                "metallicFactor" : 0
            }
        },
        {
            "doubleSided" : true,
            "emissiveFactor" : [
                1,
                1,
                1
            ],
            "emissiveTexture" : {
                "index" : 1
            },
            "name" : "Emission",
            "pbrMetallicRoughness" : {
                "baseColorTexture" : {
                    "index" : 2
                },
                "metallicFactor" : 0,
                "roughnessFactor" : 0.5
            }
        }
    ],
    "meshes" : [
        {
            "name" : "Antorcha",
            "primitives" : [
                {
                    "attributes" : {
                        "POSITION" : 0,
                        "NORMAL" : 1,
                        "TEXCOORD_0" : 2
                    },
                    "indices" : 3,
                    "material" : 0
                }
            ]
        },
        {
            "name" : "Icosphere",
            "primitives" : [
                {
                    "attributes" : {
                        "POSITION" : 4,
                        "NORMAL" : 5,
                        "TEXCOORD_0" : 6,
                        "JOINTS_0" : 7,
                        "WEIGHTS_0" : 8
                    },
                    "indices" : 9,
                    "material" : 1
                }
            ]
        }
    ],
    "textures" : [
        {
            "sampler" : 0,
            "source" : 0
        },
        {
            "sampler" : 0,
            "source" : 0
        },
        {
            "sampler" : 0,
            "source" : 0
        }
    ],
    "images" : [
        {
            "mimeType" : "image/png",
            "name" : "MT_Color_Atlas",
            "uri" : "textures/MT_Color_Atlas.png"
        }
    ],
    "skins" : [
        {
            "inverseBindMatrices" : 10,
            "joints" : [
                1,
                2,
                3,
                4
            ],
            "name" : "Armature_Antorcha"
        }
    ],
    "accessors" : [
        {
            "bufferView" : 0,
            "componentType" : 5126,
            "count" : 111,
            "max" : [
                0.08319757133722305,
                0.7707806825637817,
                0.08319757133722305
            ],
            "min" : [
                -0.08319757133722305,
                -0.00033623166382312775,
                -0.08319757133722305
            ],
            "type" : "VEC3"
        },
        {
            "bufferView" : 1,
            "componentType" : 5126,
            "count" : 111,
            "type" : "VEC3"
        },
        {
            "bufferView" : 2,
            "componentType" : 5126,
            "count" : 111,
            "type" : "VEC2"
        },
        {
            "bufferView" : 3,
            "componentType" : 5123,
            "count" : 276,
            "type" : "SCALAR"
        },
        {
            "bufferView" : 4,
            "componentType" : 5126,
            "count" : 420,
            "max" : [
                0.08884425461292267,
                1.2225568294525146,
                0.08590499311685562
            ],
            "min" : [
                -0.08563443273305893,
                0.7301340103149414,
                -0.08564680069684982
            ],
            "type" : "VEC3"
        },
        {
            "bufferView" : 5,
            "componentType" : 5126,
            "count" : 420,
            "type" : "VEC3"
        },
        {
            "bufferView" : 6,
            "componentType" : 5126,
            "count" : 420,
            "type" : "VEC2"
        },
        {
            "bufferView" : 7,
            "componentType" : 5121,
            "count" : 420,
            "type" : "VEC4"
        },
        {
            "bufferView" : 8,
            "componentType" : 5126,
            "count" : 420,
            "type" : "VEC4"
        },
        {
            "bufferView" : 9,
            "componentType" : 5123,
            "count" : 420,
            "type" : "SCALAR"
        },
        {
            "bufferView" : 10,
            "componentType" : 5126,
            "count" : 4,
            "type" : "MAT4"
        },
        {
            "bufferView" : 11,
            "componentType" : 5126,
            "count" : 29,
            "max" : [
                1.2083333333333333
            ],
            "min" : [
                0.041666666666666664
            ],
            "type" : "SCALAR"
        },
        {
            "bufferView" : 12,
            "componentType" : 5126,
            "count" : 29,
            "type" : "VEC3"
        },
        {
            "bufferView" : 13,
            "componentType" : 5126,
            "count" : 29,
            "type" : "VEC4"
        },
        {
            "bufferView" : 14,
            "componentType" : 5126,
            "count" : 29,
            "type" : "VEC3"
        },
        {
            "bufferView" : 15,
            "componentType" : 5126,
            "count" : 29,
            "type" : "VEC3"
        },
        {
            "bufferView" : 16,
            "componentType" : 5126,
            "count" : 29,
            "type" : "VEC4"
        },
        {
            "bufferView" : 17,
            "componentType" : 5126,
            "count" : 29,
            "type" : "VEC3"
        },
        {
            "bufferView" : 18,
            "componentType" : 5126,
            "count" : 29,
            "type" : "VEC3"
        },
        {
            "bufferView" : 19,
            "componentType" : 5126,
            "count" : 29,
            "type" : "VEC4"
        },
        {
            "bufferView" : 20,
            "componentType" : 5126,
            "count" : 29,
            "type" : "VEC3"
        },
        {
            "bufferView" : 21,
            "componentType" : 5126,
            "count" : 29,
            "type" : "VEC3"
        },
        {
            "bufferView" : 22,
            "componentType" : 5126,
            "count" : 29,
            "type" : "VEC4"
        },
        {
            "bufferView" : 23,
            "componentType" : 5126,
            "count" : 29,
            "type" : "VEC3"
        }
    ],
    "bufferViews" : [
        {
            "buffer" : 0,
            "byteLength" : 1332,
            "byteOffset" : 0
        },
        {
            "buffer" : 0,
            "byteLength" : 1332,
            "byteOffset" : 1332
        },
        {
            "buffer" : 0,
            "byteLength" : 888,
            "byteOffset" : 2664
        },
        {
            "buffer" : 0,
            "byteLength" : 552,
            "byteOffset" : 3552
        },
        {
            "buffer" : 0,
            "byteLength" : 5040,
            "byteOffset" : 4104
        },
        {
            "buffer" : 0,
            "byteLength" : 5040,
            "byteOffset" : 9144
        },
        {
            "buffer" : 0,
            "byteLength" : 3360,
            "byteOffset" : 14184
        },
        {
            "buffer" : 0,
            "byteLength" : 1680,
            "byteOffset" : 17544
        },
        {
            "buffer" : 0,
            "byteLength" : 6720,
            "byteOffset" : 19224
        },
        {
            "buffer" : 0,
            "byteLength" : 840,
            "byteOffset" : 25944
        },
        {
            "buffer" : 0,
            "byteLength" : 256,
            "byteOffset" : 26784
        },
        {
            "buffer" : 0,
            "byteLength" : 116,
            "byteOffset" : 27040
        },
        {
            "buffer" : 0,
            "byteLength" : 348,
            "byteOffset" : 27156
        },
        {
            "buffer" : 0,
            "byteLength" : 464,
            "byteOffset" : 27504
        },
        {
            "buffer" : 0,
            "byteLength" : 348,
            "byteOffset" : 27968
        },
        {
            "buffer" : 0,
            "byteLength" : 348,
            "byteOffset" : 28316
        },
        {
            "buffer" : 0,
            "byteLength" : 464,
            "byteOffset" : 28664
        },
        {
            "buffer" : 0,
            "byteLength" : 348,
            "byteOffset" : 29128
        },
        {
            "buffer" : 0,
            "byteLength" : 348,
            "byteOffset" : 29476
        },
        {
            "buffer" : 0,
            "byteLength" : 464,
            "byteOffset" : 29824
        },
        {
            "buffer" : 0,
            "byteLength" : 348,
            "byteOffset" : 30288
        },
        {
            "buffer" : 0,
            "byteLength" : 348,
            "byteOffset" : 30636
        },
        {
            "buffer" : 0,
            "byteLength" : 464,
            "byteOffset" : 30984
        },
        {
            "buffer" : 0,
            "byteLength" : 348,
            "byteOffset" : 31448
        }
    ],
    "samplers" : [
        {
            "magFilter" : 9729,
            "minFilter" : 9987
        }
    ],
    "buffers" : [
        {
            "byteLength" : 31796,
            "uri" : "antorcha.bin"
        }
    ]
}
