{
    "asset" : {
        "copyright" : "Eibriel",
        "generator" : "Khronos glTF Blender I/O v1.5.17",
        "version" : "2.0"
    },
    "scene" : 0,
    "scenes" : [
        {
            "name" : "Scene",
            "nodes" : [
                0,
                6,
                7,
                8,
                9
            ]
        }
    ],
    "nodes" : [
        {
            "mesh" : 0,
            "name" : "Corazon_Cortina"
        },
        {
            "name" : "Corazon_02",
            "rotation" : [
                -3.5527119847346064e-15,
                1.0658141036401503e-14,
                1.2355037734514713e-23,
                1
            ],
            "scale" : [
                0.9716541767120361,
                1.0014898777008057,
                1.0014898777008057
            ],
            "translation" : [
                0.04763657599687576,
                1.4215240478515625,
                8.64958504820379e-09
            ]
        },
        {
            "name" : "Corazon_03",
            "rotation" : [
                -1.6250004161762611e-15,
                6.802717687526575e-15,
                3.482774195985178e-23,
                1
            ],
            "scale" : [
                0.9240137934684753,
                0.9700623750686646,
                0.9214847087860107
            ],
            "translation" : [
                0.04763657599687576,
                1.5948981046676636,
                1.622799494782612e-08
            ]
        },
        {
            "name" : "Corazon_01",
            "rotation" : [
                -3.552713678800501e-15,
                -1.1920926112907182e-07,
                -2.1855740450098692e-24,
                1
            ],
            "scale" : [
                0.9948659539222717,
                1.000011920928955,
                1.000011920928955
            ],
            "translation" : [
                0.04763657599687576,
                1.24815034866333,
                1.0711733722246208e-09
            ]
        },
        {
            "children" : [
                1,
                2,
                3
            ],
            "name" : "Corazon_root",
            "rotation" : [
                -2.9802322387695312e-08,
                1.1920926112907182e-07,
                4.235164736271502e-22,
                1
            ],
            "scale" : [
                1,
                0.9999998807907104,
                0.9999998807907104
            ]
        },
        {
            "mesh" : 1,
            "name" : "Corazon_Animado",
            "skin" : 0
        },
        {
            "children" : [
                5,
                4
            ],
            "name" : "Corazon_Armature"
        },
        {
            "mesh" : 2,
            "name" : "Corazon_Collider_01"
        },
        {
            "mesh" : 3,
            "name" : "Corazon_Collider_02",
            "translation" : [
                -1.283884048461914,
                0,
                0.4715297818183899
            ]
        },
        {
            "mesh" : 4,
            "name" : "Corazon_Fondo"
        }
    ],
    "animations" : [
        {
            "channels" : [
                {
                    "sampler" : 0,
                    "target" : {
                        "node" : 4,
                        "path" : "translation"
                    }
                },
                {
                    "sampler" : 1,
                    "target" : {
                        "node" : 4,
                        "path" : "rotation"
                    }
                },
                {
                    "sampler" : 2,
                    "target" : {
                        "node" : 4,
                        "path" : "scale"
                    }
                },
                {
                    "sampler" : 3,
                    "target" : {
                        "node" : 1,
                        "path" : "translation"
                    }
                },
                {
                    "sampler" : 4,
                    "target" : {
                        "node" : 1,
                        "path" : "rotation"
                    }
                },
                {
                    "sampler" : 5,
                    "target" : {
                        "node" : 1,
                        "path" : "scale"
                    }
                },
                {
                    "sampler" : 6,
                    "target" : {
                        "node" : 2,
                        "path" : "translation"
                    }
                },
                {
                    "sampler" : 7,
                    "target" : {
                        "node" : 2,
                        "path" : "rotation"
                    }
                },
                {
                    "sampler" : 8,
                    "target" : {
                        "node" : 2,
                        "path" : "scale"
                    }
                },
                {
                    "sampler" : 9,
                    "target" : {
                        "node" : 3,
                        "path" : "translation"
                    }
                },
                {
                    "sampler" : 10,
                    "target" : {
                        "node" : 3,
                        "path" : "rotation"
                    }
                },
                {
                    "sampler" : 11,
                    "target" : {
                        "node" : 3,
                        "path" : "scale"
                    }
                }
            ],
            "name" : "Corazon_Latidos",
            "samplers" : [
                {
                    "input" : 23,
                    "interpolation" : "LINEAR",
                    "output" : 24
                },
                {
                    "input" : 23,
                    "interpolation" : "LINEAR",
                    "output" : 25
                },
                {
                    "input" : 23,
                    "interpolation" : "LINEAR",
                    "output" : 26
                },
                {
                    "input" : 23,
                    "interpolation" : "LINEAR",
                    "output" : 27
                },
                {
                    "input" : 23,
                    "interpolation" : "LINEAR",
                    "output" : 28
                },
                {
                    "input" : 23,
                    "interpolation" : "LINEAR",
                    "output" : 29
                },
                {
                    "input" : 23,
                    "interpolation" : "LINEAR",
                    "output" : 30
                },
                {
                    "input" : 23,
                    "interpolation" : "LINEAR",
                    "output" : 31
                },
                {
                    "input" : 23,
                    "interpolation" : "LINEAR",
                    "output" : 32
                },
                {
                    "input" : 23,
                    "interpolation" : "LINEAR",
                    "output" : 33
                },
                {
                    "input" : 23,
                    "interpolation" : "LINEAR",
                    "output" : 34
                },
                {
                    "input" : 23,
                    "interpolation" : "LINEAR",
                    "output" : 35
                }
            ]
        }
    ],
    "materials" : [
        {
            "doubleSided" : true,
            "name" : "Color_Atlas.001",
            "pbrMetallicRoughness" : {
                "baseColorTexture" : {
                    "index" : 0
                },
                "metallicFactor" : 0
            }
        },
        {
            "doubleSided" : true,
            "name" : "Texture_Atlas_01",
            "pbrMetallicRoughness" : {
                "baseColorTexture" : {
                    "index" : 1
                },
                "metallicFactor" : 0
            }
        }
    ],
    "meshes" : [
        {
            "name" : "Corazon_Cortina",
            "primitives" : [
                {
                    "attributes" : {
                        "POSITION" : 0,
                        "NORMAL" : 1,
                        "TEXCOORD_0" : 2
                    },
                    "indices" : 3,
                    "material" : 0
                }
            ]
        },
        {
            "name" : "Corazon_Animado",
            "primitives" : [
                {
                    "attributes" : {
                        "POSITION" : 4,
                        "NORMAL" : 5,
                        "TEXCOORD_0" : 6,
                        "JOINTS_0" : 7,
                        "WEIGHTS_0" : 8
                    },
                    "indices" : 9,
                    "material" : 1
                }
            ]
        },
        {
            "name" : "Corazon_Collider_01",
            "primitives" : [
                {
                    "attributes" : {
                        "POSITION" : 11,
                        "NORMAL" : 12,
                        "TEXCOORD_0" : 13
                    },
                    "indices" : 14
                }
            ]
        },
        {
            "name" : "Corazon_Collider_02",
            "primitives" : [
                {
                    "attributes" : {
                        "POSITION" : 15,
                        "NORMAL" : 16,
                        "TEXCOORD_0" : 17
                    },
                    "indices" : 18
                }
            ]
        },
        {
            "name" : "Corazon_Fondo",
            "primitives" : [
                {
                    "attributes" : {
                        "POSITION" : 19,
                        "NORMAL" : 20,
                        "TEXCOORD_0" : 21
                    },
                    "indices" : 22,
                    "material" : 1
                }
            ]
        }
    ],
    "textures" : [
        {
            "sampler" : 0,
            "source" : 0
        },
        {
            "sampler" : 0,
            "source" : 1
        }
    ],
    "images" : [
        {
            "mimeType" : "image/png",
            "name" : "MT_Color_Atlas",
            "uri" : "textures/MT_Color_Atlas.png"
        },
        {
            "mimeType" : "image/jpeg",
            "name" : "MT_Texture_Atlas_01",
            "uri" : "textures/MT_Texture_Atlas_01.jpg"
        }
    ],
    "skins" : [
        {
            "inverseBindMatrices" : 10,
            "joints" : [
                4,
                1,
                2,
                3
            ],
            "name" : "Corazon_Armature"
        }
    ],
    "accessors" : [
        {
            "bufferView" : 0,
            "componentType" : 5126,
            "count" : 1479,
            "max" : [
                1.8103998899459839,
                2.1927974224090576,
                0.8646960258483887
            ],
            "min" : [
                -1.6401129961013794,
                -0.012887716293334961,
                -0.2540515065193176
            ],
            "type" : "VEC3"
        },
        {
            "bufferView" : 1,
            "componentType" : 5126,
            "count" : 1479,
            "type" : "VEC3"
        },
        {
            "bufferView" : 2,
            "componentType" : 5126,
            "count" : 1479,
            "type" : "VEC2"
        },
        {
            "bufferView" : 3,
            "componentType" : 5123,
            "count" : 2349,
            "type" : "SCALAR"
        },
        {
            "bufferView" : 4,
            "componentType" : 5126,
            "count" : 40,
            "max" : [
                0.39370521903038025,
                1.768271803855896,
                1.244896274954499e-08
            ],
            "min" : [
                -0.2984320819377899,
                1.074776530265808,
                -1.7864680401658006e-08
            ],
            "type" : "VEC3"
        },
        {
            "bufferView" : 5,
            "componentType" : 5126,
            "count" : 40,
            "type" : "VEC3"
        },
        {
            "bufferView" : 6,
            "componentType" : 5126,
            "count" : 40,
            "type" : "VEC2"
        },
        {
            "bufferView" : 7,
            "componentType" : 5121,
            "count" : 40,
            "type" : "VEC4"
        },
        {
            "bufferView" : 8,
            "componentType" : 5126,
            "count" : 40,
            "type" : "VEC4"
        },
        {
            "bufferView" : 9,
            "componentType" : 5123,
            "count" : 96,
            "type" : "SCALAR"
        },
        {
            "bufferView" : 10,
            "componentType" : 5126,
            "count" : 4,
            "type" : "MAT4"
        },
        {
            "bufferView" : 11,
            "componentType" : 5126,
            "count" : 24,
            "max" : [
                1.7834168672561646,
                2.1812281608581543,
                0.3097113072872162
            ],
            "min" : [
                -1.5571019649505615,
                0,
                -0.18966889381408691
            ],
            "type" : "VEC3"
        },
        {
            "bufferView" : 12,
            "componentType" : 5126,
            "count" : 24,
            "type" : "VEC3"
        },
        {
            "bufferView" : 13,
            "componentType" : 5126,
            "count" : 24,
            "type" : "VEC2"
        },
        {
            "bufferView" : 14,
            "componentType" : 5123,
            "count" : 36,
            "type" : "SCALAR"
        },
        {
            "bufferView" : 15,
            "componentType" : 5126,
            "count" : 24,
            "max" : [
                0.4895794093608856,
                2.181227922439575,
                0.48136818408966064
            ],
            "min" : [
                -0.489579439163208,
                0,
                -0.48136818408966064
            ],
            "type" : "VEC3"
        },
        {
            "bufferView" : 16,
            "componentType" : 5126,
            "count" : 24,
            "type" : "VEC3"
        },
        {
            "bufferView" : 17,
            "componentType" : 5126,
            "count" : 24,
            "type" : "VEC2"
        },
        {
            "bufferView" : 18,
            "componentType" : 5123,
            "count" : 36,
            "type" : "SCALAR"
        },
        {
            "bufferView" : 19,
            "componentType" : 5126,
            "count" : 20,
            "max" : [
                0.7439924478530884,
                2.175583839416504,
                0.3912160098552704
            ],
            "min" : [
                -0.7546997666358948,
                0,
                -0.1402333676815033
            ],
            "type" : "VEC3"
        },
        {
            "bufferView" : 20,
            "componentType" : 5126,
            "count" : 20,
            "type" : "VEC3"
        },
        {
            "bufferView" : 21,
            "componentType" : 5126,
            "count" : 20,
            "type" : "VEC2"
        },
        {
            "bufferView" : 22,
            "componentType" : 5123,
            "count" : 30,
            "type" : "SCALAR"
        },
        {
            "bufferView" : 23,
            "componentType" : 5126,
            "count" : 50,
            "max" : [
                2.0833333333333335
            ],
            "min" : [
                0.041666666666666664
            ],
            "type" : "SCALAR"
        },
        {
            "bufferView" : 24,
            "componentType" : 5126,
            "count" : 50,
            "type" : "VEC3"
        },
        {
            "bufferView" : 25,
            "componentType" : 5126,
            "count" : 50,
            "type" : "VEC4"
        },
        {
            "bufferView" : 26,
            "componentType" : 5126,
            "count" : 50,
            "type" : "VEC3"
        },
        {
            "bufferView" : 27,
            "componentType" : 5126,
            "count" : 50,
            "type" : "VEC3"
        },
        {
            "bufferView" : 28,
            "componentType" : 5126,
            "count" : 50,
            "type" : "VEC4"
        },
        {
            "bufferView" : 29,
            "componentType" : 5126,
            "count" : 50,
            "type" : "VEC3"
        },
        {
            "bufferView" : 30,
            "componentType" : 5126,
            "count" : 50,
            "type" : "VEC3"
        },
        {
            "bufferView" : 31,
            "componentType" : 5126,
            "count" : 50,
            "type" : "VEC4"
        },
        {
            "bufferView" : 32,
            "componentType" : 5126,
            "count" : 50,
            "type" : "VEC3"
        },
        {
            "bufferView" : 33,
            "componentType" : 5126,
            "count" : 50,
            "type" : "VEC3"
        },
        {
            "bufferView" : 34,
            "componentType" : 5126,
            "count" : 50,
            "type" : "VEC4"
        },
        {
            "bufferView" : 35,
            "componentType" : 5126,
            "count" : 50,
            "type" : "VEC3"
        }
    ],
    "bufferViews" : [
        {
            "buffer" : 0,
            "byteLength" : 17748,
            "byteOffset" : 0
        },
        {
            "buffer" : 0,
            "byteLength" : 17748,
            "byteOffset" : 17748
        },
        {
            "buffer" : 0,
            "byteLength" : 11832,
            "byteOffset" : 35496
        },
        {
            "buffer" : 0,
            "byteLength" : 4698,
            "byteOffset" : 47328
        },
        {
            "buffer" : 0,
            "byteLength" : 480,
            "byteOffset" : 52028
        },
        {
            "buffer" : 0,
            "byteLength" : 480,
            "byteOffset" : 52508
        },
        {
            "buffer" : 0,
            "byteLength" : 320,
            "byteOffset" : 52988
        },
        {
            "buffer" : 0,
            "byteLength" : 160,
            "byteOffset" : 53308
        },
        {
            "buffer" : 0,
            "byteLength" : 640,
            "byteOffset" : 53468
        },
        {
            "buffer" : 0,
            "byteLength" : 192,
            "byteOffset" : 54108
        },
        {
            "buffer" : 0,
            "byteLength" : 256,
            "byteOffset" : 54300
        },
        {
            "buffer" : 0,
            "byteLength" : 288,
            "byteOffset" : 54556
        },
        {
            "buffer" : 0,
            "byteLength" : 288,
            "byteOffset" : 54844
        },
        {
            "buffer" : 0,
            "byteLength" : 192,
            "byteOffset" : 55132
        },
        {
            "buffer" : 0,
            "byteLength" : 72,
            "byteOffset" : 55324
        },
        {
            "buffer" : 0,
            "byteLength" : 288,
            "byteOffset" : 55396
        },
        {
            "buffer" : 0,
            "byteLength" : 288,
            "byteOffset" : 55684
        },
        {
            "buffer" : 0,
            "byteLength" : 192,
            "byteOffset" : 55972
        },
        {
            "buffer" : 0,
            "byteLength" : 72,
            "byteOffset" : 56164
        },
        {
            "buffer" : 0,
            "byteLength" : 240,
            "byteOffset" : 56236
        },
        {
            "buffer" : 0,
            "byteLength" : 240,
            "byteOffset" : 56476
        },
        {
            "buffer" : 0,
            "byteLength" : 160,
            "byteOffset" : 56716
        },
        {
            "buffer" : 0,
            "byteLength" : 60,
            "byteOffset" : 56876
        },
        {
            "buffer" : 0,
            "byteLength" : 200,
            "byteOffset" : 56936
        },
        {
            "buffer" : 0,
            "byteLength" : 600,
            "byteOffset" : 57136
        },
        {
            "buffer" : 0,
            "byteLength" : 800,
            "byteOffset" : 57736
        },
        {
            "buffer" : 0,
            "byteLength" : 600,
            "byteOffset" : 58536
        },
        {
            "buffer" : 0,
            "byteLength" : 600,
            "byteOffset" : 59136
        },
        {
            "buffer" : 0,
            "byteLength" : 800,
            "byteOffset" : 59736
        },
        {
            "buffer" : 0,
            "byteLength" : 600,
            "byteOffset" : 60536
        },
        {
            "buffer" : 0,
            "byteLength" : 600,
            "byteOffset" : 61136
        },
        {
            "buffer" : 0,
            "byteLength" : 800,
            "byteOffset" : 61736
        },
        {
            "buffer" : 0,
            "byteLength" : 600,
            "byteOffset" : 62536
        },
        {
            "buffer" : 0,
            "byteLength" : 600,
            "byteOffset" : 63136
        },
        {
            "buffer" : 0,
            "byteLength" : 800,
            "byteOffset" : 63736
        },
        {
            "buffer" : 0,
            "byteLength" : 600,
            "byteOffset" : 64536
        }
    ],
    "samplers" : [
        {
            "magFilter" : 9729,
            "minFilter" : 9987
        }
    ],
    "buffers" : [
        {
            "byteLength" : 65136,
            "uri" : "corazon.bin"
        }
    ]
}
