{
    "asset" : {
        "copyright" : "Eibriel",
        "generator" : "Khronos glTF Blender I/O v1.5.17",
        "version" : "2.0"
    },
    "scene" : 0,
    "scenes" : [
        {
            "name" : "Scene",
            "nodes" : [
                0,
                1,
                2,
                3
            ]
        }
    ],
    "nodes" : [
        {
            "mesh" : 0,
            "name" : "Expendedora_Tapas"
        },
        {
            "mesh" : 1,
            "name" : "Expendedora"
        },
        {
            "mesh" : 2,
            "name" : "Expendedora_Gaseosas_Vidrio"
        },
        {
            "mesh" : 3,
            "name" : "Expendedora_Collider"
        }
    ],
    "materials" : [
        {
            "alphaMode" : "BLEND",
            "doubleSided" : true,
            "name" : "Vidrio",
            "pbrMetallicRoughness" : {
                "baseColorFactor" : [
                    1,
                    1,
                    1,
                    0.05000000074505806
                ],
                "metallicFactor" : 0,
                "roughnessFactor" : 0
            }
        },
        {
            "doubleSided" : true,
            "name" : "Color_Atlas",
            "pbrMetallicRoughness" : {
                "baseColorTexture" : {
                    "index" : 0
                },
                "metallicFactor" : 0
            }
        },
        {
            "doubleSided" : true,
            "emissiveFactor" : [
                1,
                1,
                1
            ],
            "emissiveTexture" : {
                "index" : 1
            },
            "name" : "Emission",
            "pbrMetallicRoughness" : {
                "baseColorTexture" : {
                    "index" : 2
                },
                "metallicFactor" : 0,
                "roughnessFactor" : 0.5
            }
        }
    ],
    "meshes" : [
        {
            "name" : "Expendedora_Tapas",
            "primitives" : [
                {
                    "attributes" : {
                        "POSITION" : 0,
                        "NORMAL" : 1,
                        "TEXCOORD_0" : 2
                    },
                    "indices" : 3,
                    "material" : 0
                }
            ]
        },
        {
            "name" : "Expendedora",
            "primitives" : [
                {
                    "attributes" : {
                        "POSITION" : 4,
                        "NORMAL" : 5,
                        "TEXCOORD_0" : 6
                    },
                    "indices" : 7,
                    "material" : 1
                },
                {
                    "attributes" : {
                        "POSITION" : 8,
                        "NORMAL" : 9,
                        "TEXCOORD_0" : 10
                    },
                    "indices" : 11,
                    "material" : 2
                }
            ]
        },
        {
            "name" : "Expendedora_Gaseosas_Vidrio",
            "primitives" : [
                {
                    "attributes" : {
                        "POSITION" : 12,
                        "NORMAL" : 13,
                        "TEXCOORD_0" : 14
                    },
                    "indices" : 15,
                    "material" : 0
                }
            ]
        },
        {
            "name" : "Expendedora_Collider",
            "primitives" : [
                {
                    "attributes" : {
                        "POSITION" : 16,
                        "NORMAL" : 17,
                        "TEXCOORD_0" : 18
                    },
                    "indices" : 19
                }
            ]
        }
    ],
    "textures" : [
        {
            "sampler" : 0,
            "source" : 0
        },
        {
            "sampler" : 0,
            "source" : 0
        },
        {
            "sampler" : 0,
            "source" : 0
        }
    ],
    "images" : [
        {
            "mimeType" : "image/png",
            "name" : "MT_Color_Atlas",
            "uri" : "textures/MT_Color_Atlas.png"
        }
    ],
    "accessors" : [
        {
            "bufferView" : 0,
            "componentType" : 5126,
            "count" : 120,
            "max" : [
                0.3820476830005646,
                1.6643832921981812,
                0.3130192458629608
            ],
            "min" : [
                -0.37834975123405457,
                0.5966792702674866,
                0.19488471746444702
            ],
            "type" : "VEC3"
        },
        {
            "bufferView" : 1,
            "componentType" : 5126,
            "count" : 120,
            "type" : "VEC3"
        },
        {
            "bufferView" : 2,
            "componentType" : 5126,
            "count" : 120,
            "type" : "VEC2"
        },
        {
            "bufferView" : 3,
            "componentType" : 5123,
            "count" : 180,
            "type" : "SCALAR"
        },
        {
            "bufferView" : 4,
            "componentType" : 5126,
            "count" : 4988,
            "max" : [
                0.4801851212978363,
                2.0358214378356934,
                0.38871702551841736
            ],
            "min" : [
                -0.4528428912162781,
                -1.2398986726225303e-08,
                -0.3953522741794586
            ],
            "type" : "VEC3"
        },
        {
            "bufferView" : 5,
            "componentType" : 5126,
            "count" : 4988,
            "type" : "VEC3"
        },
        {
            "bufferView" : 6,
            "componentType" : 5126,
            "count" : 4988,
            "type" : "VEC2"
        },
        {
            "bufferView" : 7,
            "componentType" : 5123,
            "count" : 7404,
            "type" : "SCALAR"
        },
        {
            "bufferView" : 8,
            "componentType" : 5126,
            "count" : 20,
            "max" : [
                0.38340872526168823,
                1.6471160650253296,
                0.2978701889514923
            ],
            "min" : [
                -0.36557671427726746,
                1.2145484685897827,
                0.06529238820075989
            ],
            "type" : "VEC3"
        },
        {
            "bufferView" : 9,
            "componentType" : 5126,
            "count" : 20,
            "type" : "VEC3"
        },
        {
            "bufferView" : 10,
            "componentType" : 5126,
            "count" : 20,
            "type" : "VEC2"
        },
        {
            "bufferView" : 11,
            "componentType" : 5123,
            "count" : 30,
            "type" : "SCALAR"
        },
        {
            "bufferView" : 12,
            "componentType" : 5126,
            "count" : 2006,
            "max" : [
                0.1176440566778183,
                2.005976915359497,
                0.38961365818977356
            ],
            "min" : [
                -0.34326088428497314,
                0.5194714665412903,
                0.06467902660369873
            ],
            "type" : "VEC3"
        },
        {
            "bufferView" : 13,
            "componentType" : 5126,
            "count" : 2006,
            "type" : "VEC3"
        },
        {
            "bufferView" : 14,
            "componentType" : 5126,
            "count" : 2006,
            "type" : "VEC2"
        },
        {
            "bufferView" : 15,
            "componentType" : 5123,
            "count" : 2958,
            "type" : "SCALAR"
        },
        {
            "bufferView" : 16,
            "componentType" : 5126,
            "count" : 24,
            "max" : [
                0.4481213688850403,
                2.008296489715576,
                0.2888493835926056
            ],
            "min" : [
                -0.4481213688850403,
                0,
                -0.3941710889339447
            ],
            "type" : "VEC3"
        },
        {
            "bufferView" : 17,
            "componentType" : 5126,
            "count" : 24,
            "type" : "VEC3"
        },
        {
            "bufferView" : 18,
            "componentType" : 5126,
            "count" : 24,
            "type" : "VEC2"
        },
        {
            "bufferView" : 19,
            "componentType" : 5123,
            "count" : 36,
            "type" : "SCALAR"
        }
    ],
    "bufferViews" : [
        {
            "buffer" : 0,
            "byteLength" : 1440,
            "byteOffset" : 0
        },
        {
            "buffer" : 0,
            "byteLength" : 1440,
            "byteOffset" : 1440
        },
        {
            "buffer" : 0,
            "byteLength" : 960,
            "byteOffset" : 2880
        },
        {
            "buffer" : 0,
            "byteLength" : 360,
            "byteOffset" : 3840
        },
        {
            "buffer" : 0,
            "byteLength" : 59856,
            "byteOffset" : 4200
        },
        {
            "buffer" : 0,
            "byteLength" : 59856,
            "byteOffset" : 64056
        },
        {
            "buffer" : 0,
            "byteLength" : 39904,
            "byteOffset" : 123912
        },
        {
            "buffer" : 0,
            "byteLength" : 14808,
            "byteOffset" : 163816
        },
        {
            "buffer" : 0,
            "byteLength" : 240,
            "byteOffset" : 178624
        },
        {
            "buffer" : 0,
            "byteLength" : 240,
            "byteOffset" : 178864
        },
        {
            "buffer" : 0,
            "byteLength" : 160,
            "byteOffset" : 179104
        },
        {
            "buffer" : 0,
            "byteLength" : 60,
            "byteOffset" : 179264
        },
        {
            "buffer" : 0,
            "byteLength" : 24072,
            "byteOffset" : 179324
        },
        {
            "buffer" : 0,
            "byteLength" : 24072,
            "byteOffset" : 203396
        },
        {
            "buffer" : 0,
            "byteLength" : 16048,
            "byteOffset" : 227468
        },
        {
            "buffer" : 0,
            "byteLength" : 5916,
            "byteOffset" : 243516
        },
        {
            "buffer" : 0,
            "byteLength" : 288,
            "byteOffset" : 249432
        },
        {
            "buffer" : 0,
            "byteLength" : 288,
            "byteOffset" : 249720
        },
        {
            "buffer" : 0,
            "byteLength" : 192,
            "byteOffset" : 250008
        },
        {
            "buffer" : 0,
            "byteLength" : 72,
            "byteOffset" : 250200
        }
    ],
    "samplers" : [
        {
            "magFilter" : 9729,
            "minFilter" : 9987
        }
    ],
    "buffers" : [
        {
            "byteLength" : 250272,
            "uri" : "expendedora.bin"
        }
    ]
}
