{
    "asset" : {
        "copyright" : "Eibriel",
        "generator" : "Khronos glTF Blender I/O v1.5.17",
        "version" : "2.0"
    },
    "scene" : 0,
    "scenes" : [
        {
            "name" : "Scene",
            "nodes" : [
                0,
                3,
                4
            ]
        }
    ],
    "nodes" : [
        {
            "mesh" : 0,
            "name" : "Lavarropas"
        },
        {
            "mesh" : 1,
            "name" : "Lavarropas_Sprite",
            "rotation" : [
                0,
                0,
                0,
                1
            ],
            "scale" : [
                1.133109450340271,
                1.133109450340271,
                1.133109450340271
            ],
            "translation" : [
                1.4901161193847656e-08,
                -2.9802322387695312e-08,
                0
            ]
        },
        {
            "children" : [
                1
            ],
            "name" : "Bone",
            "rotation" : [
                0,
                0,
                -0.026397021487355232,
                0.9996515512466431
            ]
        },
        {
            "children" : [
                2
            ],
            "name" : "Lavarropas_Armature",
            "translation" : [
                -0.19093875586986542,
                0.19582249224185944,
                0.2064090222120285
            ]
        },
        {
            "mesh" : 2,
            "name" : "Lavarropas_Collider"
        }
    ],
    "animations" : [
        {
            "channels" : [
                {
                    "sampler" : 0,
                    "target" : {
                        "node" : 2,
                        "path" : "translation"
                    }
                },
                {
                    "sampler" : 1,
                    "target" : {
                        "node" : 2,
                        "path" : "rotation"
                    }
                },
                {
                    "sampler" : 2,
                    "target" : {
                        "node" : 2,
                        "path" : "scale"
                    }
                }
            ],
            "name" : "Lavarropas",
            "samplers" : [
                {
                    "input" : 16,
                    "interpolation" : "LINEAR",
                    "output" : 17
                },
                {
                    "input" : 16,
                    "interpolation" : "LINEAR",
                    "output" : 18
                },
                {
                    "input" : 16,
                    "interpolation" : "LINEAR",
                    "output" : 19
                }
            ]
        }
    ],
    "materials" : [
        {
            "doubleSided" : true,
            "name" : "Color_Atlas",
            "pbrMetallicRoughness" : {
                "baseColorTexture" : {
                    "index" : 0
                },
                "metallicFactor" : 0
            }
        },
        {
            "doubleSided" : true,
            "emissiveFactor" : [
                1,
                1,
                1
            ],
            "emissiveTexture" : {
                "index" : 1
            },
            "name" : "Emission_Soft",
            "pbrMetallicRoughness" : {
                "baseColorTexture" : {
                    "index" : 2
                },
                "metallicFactor" : 0,
                "roughnessFactor" : 0.5
            }
        },
        {
            "alphaCutoff" : 0.5243902206420898,
            "alphaMode" : "MASK",
            "doubleSided" : true,
            "emissiveFactor" : [
                0.25,
                0.25,
                0.25
            ],
            "emissiveTexture" : {
                "index" : 3
            },
            "name" : "Color_Extras_Emission",
            "pbrMetallicRoughness" : {
                "baseColorTexture" : {
                    "index" : 4
                },
                "metallicFactor" : 0
            }
        }
    ],
    "meshes" : [
        {
            "name" : "Lavarropas",
            "primitives" : [
                {
                    "attributes" : {
                        "POSITION" : 0,
                        "NORMAL" : 1,
                        "TEXCOORD_0" : 2
                    },
                    "indices" : 3,
                    "material" : 0
                },
                {
                    "attributes" : {
                        "POSITION" : 4,
                        "NORMAL" : 5,
                        "TEXCOORD_0" : 6
                    },
                    "indices" : 7,
                    "material" : 1
                }
            ]
        },
        {
            "name" : "Lavarropas_Sprite",
            "primitives" : [
                {
                    "attributes" : {
                        "POSITION" : 8,
                        "NORMAL" : 9,
                        "TEXCOORD_0" : 10
                    },
                    "indices" : 11,
                    "material" : 2
                }
            ]
        },
        {
            "name" : "Lavarropas_Collider",
            "primitives" : [
                {
                    "attributes" : {
                        "POSITION" : 12,
                        "NORMAL" : 13,
                        "TEXCOORD_0" : 14
                    },
                    "indices" : 15
                }
            ]
        }
    ],
    "textures" : [
        {
            "sampler" : 0,
            "source" : 0
        },
        {
            "sampler" : 0,
            "source" : 0
        },
        {
            "sampler" : 0,
            "source" : 0
        },
        {
            "sampler" : 0,
            "source" : 1
        },
        {
            "sampler" : 0,
            "source" : 1
        }
    ],
    "images" : [
        {
            "mimeType" : "image/png",
            "name" : "MT_Color_Atlas",
            "uri" : "textures/MT_Color_Atlas.png"
        },
        {
            "mimeType" : "image/png",
            "name" : "MT_Colors_Extra",
            "uri" : "textures/MT_Colors_Extra.png"
        }
    ],
    "accessors" : [
        {
            "bufferView" : 0,
            "componentType" : 5126,
            "count" : 470,
            "max" : [
                0.3732490539550781,
                0.46253764629364014,
                0.1892821192741394
            ],
            "min" : [
                -0.3731584846973419,
                0,
                -0.1892821192741394
            ],
            "type" : "VEC3"
        },
        {
            "bufferView" : 1,
            "componentType" : 5126,
            "count" : 470,
            "type" : "VEC3"
        },
        {
            "bufferView" : 2,
            "componentType" : 5126,
            "count" : 470,
            "type" : "VEC2"
        },
        {
            "bufferView" : 3,
            "componentType" : 5123,
            "count" : 756,
            "type" : "SCALAR"
        },
        {
            "bufferView" : 4,
            "componentType" : 5126,
            "count" : 20,
            "max" : [
                0.2757134437561035,
                0.4417116940021515,
                -0.11416535824537277
            ],
            "min" : [
                0.10556765645742416,
                0.38235074281692505,
                -0.14813430607318878
            ],
            "type" : "VEC3"
        },
        {
            "bufferView" : 5,
            "componentType" : 5126,
            "count" : 20,
            "type" : "VEC3"
        },
        {
            "bufferView" : 6,
            "componentType" : 5126,
            "count" : 20,
            "type" : "VEC2"
        },
        {
            "bufferView" : 7,
            "componentType" : 5123,
            "count" : 30,
            "type" : "SCALAR"
        },
        {
            "bufferView" : 8,
            "componentType" : 5126,
            "count" : 8,
            "max" : [
                0.10633529722690582,
                0.10633530467748642,
                -0.006458871997892857
            ],
            "min" : [
                -0.10633528232574463,
                -0.10633527487516403,
                -0.012769842520356178
            ],
            "type" : "VEC3"
        },
        {
            "bufferView" : 9,
            "componentType" : 5126,
            "count" : 8,
            "type" : "VEC3"
        },
        {
            "bufferView" : 10,
            "componentType" : 5126,
            "count" : 8,
            "type" : "VEC2"
        },
        {
            "bufferView" : 11,
            "componentType" : 5123,
            "count" : 12,
            "type" : "SCALAR"
        },
        {
            "bufferView" : 12,
            "componentType" : 5126,
            "count" : 24,
            "max" : [
                0.3796568214893341,
                0.4077308475971222,
                0.1857464611530304
            ],
            "min" : [
                -0.3796568214893341,
                0,
                -0.1857464611530304
            ],
            "type" : "VEC3"
        },
        {
            "bufferView" : 13,
            "componentType" : 5126,
            "count" : 24,
            "type" : "VEC3"
        },
        {
            "bufferView" : 14,
            "componentType" : 5126,
            "count" : 24,
            "type" : "VEC2"
        },
        {
            "bufferView" : 15,
            "componentType" : 5123,
            "count" : 36,
            "type" : "SCALAR"
        },
        {
            "bufferView" : 16,
            "componentType" : 5126,
            "count" : 120,
            "max" : [
                5
            ],
            "min" : [
                0.041666666666666664
            ],
            "type" : "SCALAR"
        },
        {
            "bufferView" : 17,
            "componentType" : 5126,
            "count" : 120,
            "type" : "VEC3"
        },
        {
            "bufferView" : 18,
            "componentType" : 5126,
            "count" : 120,
            "type" : "VEC4"
        },
        {
            "bufferView" : 19,
            "componentType" : 5126,
            "count" : 120,
            "type" : "VEC3"
        }
    ],
    "bufferViews" : [
        {
            "buffer" : 0,
            "byteLength" : 5640,
            "byteOffset" : 0
        },
        {
            "buffer" : 0,
            "byteLength" : 5640,
            "byteOffset" : 5640
        },
        {
            "buffer" : 0,
            "byteLength" : 3760,
            "byteOffset" : 11280
        },
        {
            "buffer" : 0,
            "byteLength" : 1512,
            "byteOffset" : 15040
        },
        {
            "buffer" : 0,
            "byteLength" : 240,
            "byteOffset" : 16552
        },
        {
            "buffer" : 0,
            "byteLength" : 240,
            "byteOffset" : 16792
        },
        {
            "buffer" : 0,
            "byteLength" : 160,
            "byteOffset" : 17032
        },
        {
            "buffer" : 0,
            "byteLength" : 60,
            "byteOffset" : 17192
        },
        {
            "buffer" : 0,
            "byteLength" : 96,
            "byteOffset" : 17252
        },
        {
            "buffer" : 0,
            "byteLength" : 96,
            "byteOffset" : 17348
        },
        {
            "buffer" : 0,
            "byteLength" : 64,
            "byteOffset" : 17444
        },
        {
            "buffer" : 0,
            "byteLength" : 24,
            "byteOffset" : 17508
        },
        {
            "buffer" : 0,
            "byteLength" : 288,
            "byteOffset" : 17532
        },
        {
            "buffer" : 0,
            "byteLength" : 288,
            "byteOffset" : 17820
        },
        {
            "buffer" : 0,
            "byteLength" : 192,
            "byteOffset" : 18108
        },
        {
            "buffer" : 0,
            "byteLength" : 72,
            "byteOffset" : 18300
        },
        {
            "buffer" : 0,
            "byteLength" : 480,
            "byteOffset" : 18372
        },
        {
            "buffer" : 0,
            "byteLength" : 1440,
            "byteOffset" : 18852
        },
        {
            "buffer" : 0,
            "byteLength" : 1920,
            "byteOffset" : 20292
        },
        {
            "buffer" : 0,
            "byteLength" : 1440,
            "byteOffset" : 22212
        }
    ],
    "samplers" : [
        {
            "magFilter" : 9729,
            "minFilter" : 9987
        }
    ],
    "buffers" : [
        {
            "byteLength" : 23652,
            "uri" : "lavarropas.bin"
        }
    ]
}
