{
    "asset" : {
        "copyright" : "Eibriel",
        "generator" : "Khronos glTF Blender I/O v1.5.17",
        "version" : "2.0"
    },
    "scene" : 0,
    "scenes" : [
        {
            "name" : "Scene",
            "nodes" : [
                0,
                1
            ]
        }
    ],
    "nodes" : [
        {
            "mesh" : 0,
            "name" : "Cartel-Malabia-Uploads"
        },
        {
            "mesh" : 1,
            "name" : "Anim-Uploads-f.001"
        }
    ],
    "materials" : [
        {
            "doubleSided" : true,
            "emissiveFactor" : [
                1,
                1,
                1
            ],
            "emissiveTexture" : {
                "index" : 0
            },
            "name" : "Emission_Soft",
            "pbrMetallicRoughness" : {
                "baseColorTexture" : {
                    "index" : 1
                },
                "metallicFactor" : 0,
                "roughnessFactor" : 0.5
            }
        },
        {
            "doubleSided" : true,
            "emissiveFactor" : [
                1,
                1,
                1
            ],
            "emissiveTexture" : {
                "index" : 2
            },
            "name" : "Emission",
            "pbrMetallicRoughness" : {
                "baseColorTexture" : {
                    "index" : 3
                },
                "metallicFactor" : 0,
                "roughnessFactor" : 0.5
            }
        }
    ],
    "meshes" : [
        {
            "name" : "Cartel-Malabia-Uploads",
            "primitives" : [
                {
                    "attributes" : {
                        "POSITION" : 0,
                        "NORMAL" : 1,
                        "TEXCOORD_0" : 2
                    },
                    "indices" : 3,
                    "material" : 0
                }
            ]
        },
        {
            "name" : "Anim-Uploads-f.001",
            "primitives" : [
                {
                    "attributes" : {
                        "POSITION" : 4,
                        "NORMAL" : 5,
                        "TEXCOORD_0" : 6
                    },
                    "indices" : 7,
                    "material" : 1
                },
                {
                    "attributes" : {
                        "POSITION" : 8,
                        "NORMAL" : 9,
                        "TEXCOORD_0" : 10
                    },
                    "indices" : 11,
                    "material" : 0
                }
            ]
        }
    ],
    "textures" : [
        {
            "sampler" : 0,
            "source" : 0
        },
        {
            "sampler" : 0,
            "source" : 0
        },
        {
            "sampler" : 0,
            "source" : 0
        },
        {
            "sampler" : 0,
            "source" : 0
        }
    ],
    "images" : [
        {
            "mimeType" : "image/png",
            "name" : "MT_Color_Atlas",
            "uri" : "textures/MT_Color_Atlas.png"
        }
    ],
    "accessors" : [
        {
            "bufferView" : 0,
            "componentType" : 5126,
            "count" : 335,
            "max" : [
                0.5856013894081116,
                0.8024683594703674,
                0.07375135272741318
            ],
            "min" : [
                -0.5631755590438843,
                -0.010000666603446007,
                0.0021047149784862995
            ],
            "type" : "VEC3"
        },
        {
            "bufferView" : 1,
            "componentType" : 5126,
            "count" : 335,
            "type" : "VEC3"
        },
        {
            "bufferView" : 2,
            "componentType" : 5126,
            "count" : 335,
            "type" : "VEC2"
        },
        {
            "bufferView" : 3,
            "componentType" : 5123,
            "count" : 759,
            "type" : "SCALAR"
        },
        {
            "bufferView" : 4,
            "componentType" : 5126,
            "count" : 48,
            "max" : [
                0.5094053745269775,
                0.830339789390564,
                0.1574249118566513
            ],
            "min" : [
                -0.5687833428382874,
                -0.02349882200360298,
                0.059065911918878555
            ],
            "type" : "VEC3"
        },
        {
            "bufferView" : 5,
            "componentType" : 5126,
            "count" : 48,
            "type" : "VEC3"
        },
        {
            "bufferView" : 6,
            "componentType" : 5126,
            "count" : 48,
            "type" : "VEC2"
        },
        {
            "bufferView" : 7,
            "componentType" : 5123,
            "count" : 72,
            "type" : "SCALAR"
        },
        {
            "bufferView" : 8,
            "componentType" : 5126,
            "count" : 243,
            "max" : [
                0.5623067021369934,
                0.7235962152481079,
                0.07552161812782288
            ],
            "min" : [
                -0.4825994670391083,
                0.12011014670133591,
                0.07552158832550049
            ],
            "type" : "VEC3"
        },
        {
            "bufferView" : 9,
            "componentType" : 5126,
            "count" : 243,
            "type" : "VEC3"
        },
        {
            "bufferView" : 10,
            "componentType" : 5126,
            "count" : 243,
            "type" : "VEC2"
        },
        {
            "bufferView" : 11,
            "componentType" : 5123,
            "count" : 633,
            "type" : "SCALAR"
        }
    ],
    "bufferViews" : [
        {
            "buffer" : 0,
            "byteLength" : 4020,
            "byteOffset" : 0
        },
        {
            "buffer" : 0,
            "byteLength" : 4020,
            "byteOffset" : 4020
        },
        {
            "buffer" : 0,
            "byteLength" : 2680,
            "byteOffset" : 8040
        },
        {
            "buffer" : 0,
            "byteLength" : 1518,
            "byteOffset" : 10720
        },
        {
            "buffer" : 0,
            "byteLength" : 576,
            "byteOffset" : 12240
        },
        {
            "buffer" : 0,
            "byteLength" : 576,
            "byteOffset" : 12816
        },
        {
            "buffer" : 0,
            "byteLength" : 384,
            "byteOffset" : 13392
        },
        {
            "buffer" : 0,
            "byteLength" : 144,
            "byteOffset" : 13776
        },
        {
            "buffer" : 0,
            "byteLength" : 2916,
            "byteOffset" : 13920
        },
        {
            "buffer" : 0,
            "byteLength" : 2916,
            "byteOffset" : 16836
        },
        {
            "buffer" : 0,
            "byteLength" : 1944,
            "byteOffset" : 19752
        },
        {
            "buffer" : 0,
            "byteLength" : 1266,
            "byteOffset" : 21696
        }
    ],
    "samplers" : [
        {
            "magFilter" : 9729,
            "minFilter" : 9987
        }
    ],
    "buffers" : [
        {
            "byteLength" : 22964,
            "uri" : "malabia_uploads-001.bin"
        }
    ]
}
