{
    "asset" : {
        "copyright" : "Eibriel",
        "generator" : "Khronos glTF Blender I/O v1.5.17",
        "version" : "2.0"
    },
    "scene" : 0,
    "scenes" : [
        {
            "name" : "Scene",
            "nodes" : [
                4
            ]
        }
    ],
    "nodes" : [
        {
            "name" : "Mariposa_Ala_L",
            "rotation" : [
                -1.3820756805671408e-07,
                -1.358884418323214e-07,
                -0.9047849774360657,
                0.4258686900138855
            ],
            "scale" : [
                0.9999999403953552,
                1,
                1
            ],
            "translation" : [
                0.009026489220559597,
                0.01677699387073517,
                4.456765623217507e-09
            ]
        },
        {
            "name" : "Mariposa_Ala_R",
            "rotation" : [
                -2.1008396799970797e-07,
                4.4477042138169054e-07,
                0.8729457855224609,
                0.48781731724739075
            ],
            "scale" : [
                1.0000001192092896,
                1,
                1
            ],
            "translation" : [
                -0.009026489220559597,
                0.01677699387073517,
                4.456765623217507e-09
            ]
        },
        {
            "children" : [
                0,
                1
            ],
            "name" : "Mariposa_Root",
            "rotation" : [
                -0.0001269728090846911,
                0,
                0,
                1
            ],
            "scale" : [
                1,
                0.9999999403953552,
                0.9999999403953552
            ],
            "translation" : [
                0,
                -0.001539032906293869,
                0
            ]
        },
        {
            "mesh" : 0,
            "name" : "Mariposa",
            "skin" : 0
        },
        {
            "children" : [
                3,
                2
            ],
            "name" : "Mariposa_Armature"
        }
    ],
    "animations" : [
        {
            "channels" : [
                {
                    "sampler" : 0,
                    "target" : {
                        "node" : 2,
                        "path" : "translation"
                    }
                },
                {
                    "sampler" : 1,
                    "target" : {
                        "node" : 2,
                        "path" : "rotation"
                    }
                },
                {
                    "sampler" : 2,
                    "target" : {
                        "node" : 2,
                        "path" : "scale"
                    }
                },
                {
                    "sampler" : 3,
                    "target" : {
                        "node" : 0,
                        "path" : "translation"
                    }
                },
                {
                    "sampler" : 4,
                    "target" : {
                        "node" : 0,
                        "path" : "rotation"
                    }
                },
                {
                    "sampler" : 5,
                    "target" : {
                        "node" : 0,
                        "path" : "scale"
                    }
                },
                {
                    "sampler" : 6,
                    "target" : {
                        "node" : 1,
                        "path" : "translation"
                    }
                },
                {
                    "sampler" : 7,
                    "target" : {
                        "node" : 1,
                        "path" : "rotation"
                    }
                },
                {
                    "sampler" : 8,
                    "target" : {
                        "node" : 1,
                        "path" : "scale"
                    }
                }
            ],
            "name" : "Mariposa_Vuelo",
            "samplers" : [
                {
                    "input" : 7,
                    "interpolation" : "LINEAR",
                    "output" : 8
                },
                {
                    "input" : 7,
                    "interpolation" : "LINEAR",
                    "output" : 9
                },
                {
                    "input" : 7,
                    "interpolation" : "LINEAR",
                    "output" : 10
                },
                {
                    "input" : 7,
                    "interpolation" : "LINEAR",
                    "output" : 11
                },
                {
                    "input" : 7,
                    "interpolation" : "LINEAR",
                    "output" : 12
                },
                {
                    "input" : 7,
                    "interpolation" : "LINEAR",
                    "output" : 13
                },
                {
                    "input" : 7,
                    "interpolation" : "LINEAR",
                    "output" : 14
                },
                {
                    "input" : 7,
                    "interpolation" : "LINEAR",
                    "output" : 15
                },
                {
                    "input" : 7,
                    "interpolation" : "LINEAR",
                    "output" : 16
                }
            ]
        }
    ],
    "materials" : [
        {
            "doubleSided" : true,
            "name" : "Color_Atlas",
            "pbrMetallicRoughness" : {
                "baseColorTexture" : {
                    "index" : 0
                },
                "metallicFactor" : 0
            }
        }
    ],
    "meshes" : [
        {
            "name" : "Mariposa",
            "primitives" : [
                {
                    "attributes" : {
                        "POSITION" : 0,
                        "NORMAL" : 1,
                        "TEXCOORD_0" : 2,
                        "JOINTS_0" : 3,
                        "WEIGHTS_0" : 4
                    },
                    "indices" : 5,
                    "material" : 0
                }
            ]
        }
    ],
    "textures" : [
        {
            "sampler" : 0,
            "source" : 0
        }
    ],
    "images" : [
        {
            "mimeType" : "image/png",
            "name" : "MT_Color_Atlas",
            "uri" : "textures/MT_Color_Atlas.png"
        }
    ],
    "skins" : [
        {
            "inverseBindMatrices" : 6,
            "joints" : [
                2,
                0,
                1
            ],
            "name" : "Mariposa_Armature"
        }
    ],
    "accessors" : [
        {
            "bufferView" : 0,
            "componentType" : 5126,
            "count" : 848,
            "max" : [
                0.10031227022409439,
                0.028937067836523056,
                0.07880298048257828
            ],
            "min" : [
                -0.10031227022409439,
                -0.0176643505692482,
                -0.06260471791028976
            ],
            "type" : "VEC3"
        },
        {
            "bufferView" : 1,
            "componentType" : 5126,
            "count" : 848,
            "type" : "VEC3"
        },
        {
            "bufferView" : 2,
            "componentType" : 5126,
            "count" : 848,
            "type" : "VEC2"
        },
        {
            "bufferView" : 3,
            "componentType" : 5121,
            "count" : 848,
            "type" : "VEC4"
        },
        {
            "bufferView" : 4,
            "componentType" : 5126,
            "count" : 848,
            "type" : "VEC4"
        },
        {
            "bufferView" : 5,
            "componentType" : 5123,
            "count" : 1176,
            "type" : "SCALAR"
        },
        {
            "bufferView" : 6,
            "componentType" : 5126,
            "count" : 3,
            "type" : "MAT4"
        },
        {
            "bufferView" : 7,
            "componentType" : 5126,
            "count" : 34,
            "max" : [
                1.4166666666666667
            ],
            "min" : [
                0.041666666666666664
            ],
            "type" : "SCALAR"
        },
        {
            "bufferView" : 8,
            "componentType" : 5126,
            "count" : 34,
            "type" : "VEC3"
        },
        {
            "bufferView" : 9,
            "componentType" : 5126,
            "count" : 34,
            "type" : "VEC4"
        },
        {
            "bufferView" : 10,
            "componentType" : 5126,
            "count" : 34,
            "type" : "VEC3"
        },
        {
            "bufferView" : 11,
            "componentType" : 5126,
            "count" : 34,
            "type" : "VEC3"
        },
        {
            "bufferView" : 12,
            "componentType" : 5126,
            "count" : 34,
            "type" : "VEC4"
        },
        {
            "bufferView" : 13,
            "componentType" : 5126,
            "count" : 34,
            "type" : "VEC3"
        },
        {
            "bufferView" : 14,
            "componentType" : 5126,
            "count" : 34,
            "type" : "VEC3"
        },
        {
            "bufferView" : 15,
            "componentType" : 5126,
            "count" : 34,
            "type" : "VEC4"
        },
        {
            "bufferView" : 16,
            "componentType" : 5126,
            "count" : 34,
            "type" : "VEC3"
        }
    ],
    "bufferViews" : [
        {
            "buffer" : 0,
            "byteLength" : 10176,
            "byteOffset" : 0
        },
        {
            "buffer" : 0,
            "byteLength" : 10176,
            "byteOffset" : 10176
        },
        {
            "buffer" : 0,
            "byteLength" : 6784,
            "byteOffset" : 20352
        },
        {
            "buffer" : 0,
            "byteLength" : 3392,
            "byteOffset" : 27136
        },
        {
            "buffer" : 0,
            "byteLength" : 13568,
            "byteOffset" : 30528
        },
        {
            "buffer" : 0,
            "byteLength" : 2352,
            "byteOffset" : 44096
        },
        {
            "buffer" : 0,
            "byteLength" : 192,
            "byteOffset" : 46448
        },
        {
            "buffer" : 0,
            "byteLength" : 136,
            "byteOffset" : 46640
        },
        {
            "buffer" : 0,
            "byteLength" : 408,
            "byteOffset" : 46776
        },
        {
            "buffer" : 0,
            "byteLength" : 544,
            "byteOffset" : 47184
        },
        {
            "buffer" : 0,
            "byteLength" : 408,
            "byteOffset" : 47728
        },
        {
            "buffer" : 0,
            "byteLength" : 408,
            "byteOffset" : 48136
        },
        {
            "buffer" : 0,
            "byteLength" : 544,
            "byteOffset" : 48544
        },
        {
            "buffer" : 0,
            "byteLength" : 408,
            "byteOffset" : 49088
        },
        {
            "buffer" : 0,
            "byteLength" : 408,
            "byteOffset" : 49496
        },
        {
            "buffer" : 0,
            "byteLength" : 544,
            "byteOffset" : 49904
        },
        {
            "buffer" : 0,
            "byteLength" : 408,
            "byteOffset" : 50448
        }
    ],
    "samplers" : [
        {
            "magFilter" : 9729,
            "minFilter" : 9987
        }
    ],
    "buffers" : [
        {
            "byteLength" : 50856,
            "uri" : "mariposa.bin"
        }
    ]
}
