{
    "asset" : {
        "copyright" : "Eibriel",
        "generator" : "Khronos glTF Blender I/O v1.5.17",
        "version" : "2.0"
    },
    "scene" : 0,
    "scenes" : [
        {
            "name" : "Scene",
            "nodes" : [
                0,
                1
            ]
        }
    ],
    "nodes" : [
        {
            "mesh" : 0,
            "name" : "Pizarron"
        },
        {
            "mesh" : 1,
            "name" : "Pizarron_Collider"
        }
    ],
    "materials" : [
        {
            "doubleSided" : true,
            "name" : "Color_Atlas",
            "pbrMetallicRoughness" : {
                "baseColorTexture" : {
                    "index" : 0
                },
                "metallicFactor" : 0
            }
        }
    ],
    "meshes" : [
        {
            "name" : "Pizarron",
            "primitives" : [
                {
                    "attributes" : {
                        "POSITION" : 0,
                        "NORMAL" : 1,
                        "TEXCOORD_0" : 2,
                        "TEXCOORD_1" : 3,
                        "TEXCOORD_2" : 4
                    },
                    "indices" : 5,
                    "material" : 0
                }
            ]
        },
        {
            "name" : "Pizarron_Collider",
            "primitives" : [
                {
                    "attributes" : {
                        "POSITION" : 6,
                        "NORMAL" : 7,
                        "TEXCOORD_0" : 8
                    },
                    "indices" : 9
                }
            ]
        }
    ],
    "textures" : [
        {
            "sampler" : 0,
            "source" : 0
        }
    ],
    "images" : [
        {
            "mimeType" : "image/png",
            "name" : "MT_Color_Atlas",
            "uri" : "textures/MT_Color_Atlas.png"
        }
    ],
    "accessors" : [
        {
            "bufferView" : 0,
            "componentType" : 5126,
            "count" : 2003,
            "max" : [
                0.9156553149223328,
                1.098317265510559,
                0.12334980070590973
            ],
            "min" : [
                -0.8906347751617432,
                0,
                -0.12334980815649033
            ],
            "type" : "VEC3"
        },
        {
            "bufferView" : 1,
            "componentType" : 5126,
            "count" : 2003,
            "type" : "VEC3"
        },
        {
            "bufferView" : 2,
            "componentType" : 5126,
            "count" : 2003,
            "type" : "VEC2"
        },
        {
            "bufferView" : 3,
            "componentType" : 5126,
            "count" : 2003,
            "type" : "VEC2"
        },
        {
            "bufferView" : 4,
            "componentType" : 5126,
            "count" : 2003,
            "type" : "VEC2"
        },
        {
            "bufferView" : 5,
            "componentType" : 5123,
            "count" : 2982,
            "type" : "SCALAR"
        },
        {
            "bufferView" : 6,
            "componentType" : 5126,
            "count" : 24,
            "max" : [
                0.8513858318328857,
                1.075111746788025,
                0.07651520520448685
            ],
            "min" : [
                -0.8513858318328857,
                0,
                -0.07651519030332565
            ],
            "type" : "VEC3"
        },
        {
            "bufferView" : 7,
            "componentType" : 5126,
            "count" : 24,
            "type" : "VEC3"
        },
        {
            "bufferView" : 8,
            "componentType" : 5126,
            "count" : 24,
            "type" : "VEC2"
        },
        {
            "bufferView" : 9,
            "componentType" : 5123,
            "count" : 36,
            "type" : "SCALAR"
        }
    ],
    "bufferViews" : [
        {
            "buffer" : 0,
            "byteLength" : 24036,
            "byteOffset" : 0
        },
        {
            "buffer" : 0,
            "byteLength" : 24036,
            "byteOffset" : 24036
        },
        {
            "buffer" : 0,
            "byteLength" : 16024,
            "byteOffset" : 48072
        },
        {
            "buffer" : 0,
            "byteLength" : 16024,
            "byteOffset" : 64096
        },
        {
            "buffer" : 0,
            "byteLength" : 16024,
            "byteOffset" : 80120
        },
        {
            "buffer" : 0,
            "byteLength" : 5964,
            "byteOffset" : 96144
        },
        {
            "buffer" : 0,
            "byteLength" : 288,
            "byteOffset" : 102108
        },
        {
            "buffer" : 0,
            "byteLength" : 288,
            "byteOffset" : 102396
        },
        {
            "buffer" : 0,
            "byteLength" : 192,
            "byteOffset" : 102684
        },
        {
            "buffer" : 0,
            "byteLength" : 72,
            "byteOffset" : 102876
        }
    ],
    "samplers" : [
        {
            "magFilter" : 9729,
            "minFilter" : 9987
        }
    ],
    "buffers" : [
        {
            "byteLength" : 102948,
            "uri" : "pizarron.bin"
        }
    ]
}
