{
	"asset":{
		"generator":"Khronos glTF Blender I/O v4.2.70",
		"version":"2.0"
	},
	"scene":0,
	"scenes":[
		{
			"name":"Scene",
			"nodes":[
				0,
				1
			]
		}
	],
	"nodes":[
		{
			"mesh":0,
			"name":"Puerta_Cortina"
		},
		{
			"mesh":1,
			"name":"Puerta_Cortina_collider",
			"scale":[
				1,
				1,
				0.614954948425293
			],
			"translation":[
				0,
				0,
				0.2795122563838959
			]
		}
	],
	"materials":[
		{
			"doubleSided":true,
			"name":"Texture_Atlas_01",
			"pbrMetallicRoughness":{
				"baseColorTexture":{
					"index":0
				},
				"metallicFactor":0
			}
		}
	],
	"meshes":[
		{
			"name":"Puerta_Cortina",
			"primitives":[
				{
					"attributes":{
						"POSITION":0,
						"NORMAL":1,
						"TEXCOORD_0":2
					},
					"indices":3,
					"material":0
				}
			]
		},
		{
			"name":"Puerta_Cortina_collider",
			"primitives":[
				{
					"attributes":{
						"POSITION":4,
						"NORMAL":5,
						"TEXCOORD_0":6
					},
					"indices":7
				}
			]
		}
	],
	"textures":[
		{
			"sampler":0,
			"source":0
		}
	],
	"images":[
		{
			"mimeType":"image/jpeg",
			"name":"MT_Texture_Atlas_01",
			"uri":"MT_Texture_Atlas_01.jpg"
		}
	],
	"accessors":[
		{
			"bufferView":0,
			"componentType":5126,
			"count":510,
			"max":[
				0.21950340270996094,
				3.08982515335083,
				0.7249250411987305
			],
			"min":[
				-0.16449260711669922,
				0,
				-0.9558506011962891
			],
			"type":"VEC3"
		},
		{
			"bufferView":1,
			"componentType":5126,
			"count":510,
			"type":"VEC3"
		},
		{
			"bufferView":2,
			"componentType":5126,
			"count":510,
			"type":"VEC2"
		},
		{
			"bufferView":3,
			"componentType":5123,
			"count":942,
			"type":"SCALAR"
		},
		{
			"bufferView":4,
			"componentType":5126,
			"count":24,
			"max":[
				0.1392761468887329,
				3.0970425605773926,
				0.731194019317627
			],
			"min":[
				-0.1392761468887329,
				0,
				-0.731194019317627
			],
			"type":"VEC3"
		},
		{
			"bufferView":5,
			"componentType":5126,
			"count":24,
			"type":"VEC3"
		},
		{
			"bufferView":6,
			"componentType":5126,
			"count":24,
			"type":"VEC2"
		},
		{
			"bufferView":7,
			"componentType":5123,
			"count":36,
			"type":"SCALAR"
		}
	],
	"bufferViews":[
		{
			"buffer":0,
			"byteLength":6120,
			"byteOffset":0,
			"target":34962
		},
		{
			"buffer":0,
			"byteLength":6120,
			"byteOffset":6120,
			"target":34962
		},
		{
			"buffer":0,
			"byteLength":4080,
			"byteOffset":12240,
			"target":34962
		},
		{
			"buffer":0,
			"byteLength":1884,
			"byteOffset":16320,
			"target":34963
		},
		{
			"buffer":0,
			"byteLength":288,
			"byteOffset":18204,
			"target":34962
		},
		{
			"buffer":0,
			"byteLength":288,
			"byteOffset":18492,
			"target":34962
		},
		{
			"buffer":0,
			"byteLength":192,
			"byteOffset":18780,
			"target":34962
		},
		{
			"buffer":0,
			"byteLength":72,
			"byteOffset":18972,
			"target":34963
		}
	],
	"samplers":[
		{
			"magFilter":9729,
			"minFilter":9987
		}
	],
	"buffers":[
		{
			"byteLength":19044,
			"uri":"puerta_cortina.bin"
		}
	]
}
