{
	"asset":{
		"generator":"Khronos glTF Blender I/O v4.2.70",
		"version":"2.0"
	},
	"scene":0,
	"scenes":[
		{
			"name":"Scene",
			"nodes":[
				23
			]
		}
	],
	"nodes":[
		{
			"mesh":0,
			"name":"Ardilla",
			"scale":[
				0.33874040842056274,
				0.3387404680252075,
				0.33874040842056274
			],
			"translation":[
				0.2280026376247406,
				0,
				0
			]
		},
		{
			"mesh":1,
			"name":"Jirafa",
			"translation":[
				0.6139073967933655,
				0,
				0
			]
		},
		{
			"mesh":2,
			"name":"Tigre",
			"scale":[
				0.33874040842056274,
				0.3387404680252075,
				0.33874040842056274
			],
			"translation":[
				-0.15626299381256104,
				0,
				0
			]
		},
		{
			"mesh":3,
			"name":"Zebra",
			"scale":[
				0.33874040842056274,
				0.3387404680252075,
				0.33874040842056274
			],
			"translation":[
				-0.5580607652664185,
				0,
				0
			]
		},
		{
			"children":[
				0,
				1,
				2,
				3
			],
			"name":"Animales_del_Estanque",
			"rotation":[
				0,
				-0.9854660630226135,
				0,
				0.16987256705760956
			],
			"translation":[
				0.5696195960044861,
				0.06384897232055664,
				5.3136138916015625
			]
		},
		{
			"mesh":4,
			"name":"Cartel_Asi_Esta_Bien.001"
		},
		{
			"children":[
				5
			],
			"name":"Cartel_Asi_Esta_Bien",
			"rotation":[
				0,
				-0.9942302703857422,
				0,
				0.10726698487997055
			],
			"scale":[
				1.1224087476730347,
				1.1224085092544556,
				1.1224087476730347
			],
			"translation":[
				0.7396826148033142,
				0.0499725341796875,
				-7.56315803527832
			]
		},
		{
			"mesh":5,
			"name":"Cartel_Disfruta_El_Camino.001"
		},
		{
			"children":[
				7
			],
			"name":"Cartel_Disfruta_El_Camino",
			"rotation":[
				0,
				0.5601981282234192,
				0,
				0.8283586502075195
			],
			"scale":[
				1.1912145614624023,
				1.1912144422531128,
				1.1912145614624023
			],
			"translation":[
				-9.989160537719727,
				0.049988746643066406,
				-1.153416395187378
			]
		},
		{
			"mesh":6,
			"name":"Agua.001"
		},
		{
			"mesh":7,
			"name":"Jardin_collider_01"
		},
		{
			"mesh":8,
			"name":"Jardin_collider_02"
		},
		{
			"mesh":9,
			"name":"Plantas"
		},
		{
			"mesh":10,
			"name":"Rocas"
		},
		{
			"children":[
				9,
				10,
				11,
				12,
				13
			],
			"name":"Jardin_Cascada",
			"scale":[
				0.6619975566864014,
				0.6619975566864014,
				0.6619975566864014
			],
			"translation":[
				-1.4655143022537231,
				0,
				-20.593399047851562
			]
		},
		{
			"mesh":11,
			"name":"Jardin_Comedor.001",
			"rotation":[
				0.06988027691841125,
				-0.7784427404403687,
				-0.08808445185422897,
				0.617563784122467
			],
			"scale":[
				1.3638973236083984,
				1.3638973236083984,
				1.3638973236083984
			],
			"translation":[
				-1.2372043132781982,
				0.8833832144737244,
				-1.1247998476028442
			]
		},
		{
			"mesh":12,
			"name":"Jardin_Comedor_collider"
		},
		{
			"children":[
				15,
				16
			],
			"name":"Jardin_Comedor",
			"rotation":[
				0,
				-0.7071069478988647,
				0,
				0.7071066498756409
			],
			"scale":[
				0.8368441462516785,
				0.8368440270423889,
				0.8368441462516785
			],
			"translation":[
				22.002994537353516,
				0,
				-4.0377655029296875
			]
		},
		{
			"mesh":13,
			"name":"Foto_Perro_Caetano"
		},
		{
			"children":[
				18
			],
			"name":"Perro_Caetano",
			"rotation":[
				0,
				0.7071068286895752,
				0,
				0.7071067094802856
			],
			"scale":[
				1.3737295866012573,
				1.3737295866012573,
				1.3737295866012573
			],
			"translation":[
				14.203300476074219,
				2.0213241577148438,
				-7.235493183135986
			]
		},
		{
			"mesh":14,
			"name":"Planta.001"
		},
		{
			"mesh":15,
			"name":"Planta_collider"
		},
		{
			"children":[
				20,
				21
			],
			"name":"Planta",
			"scale":[
				2,
				2,
				2
			],
			"translation":[
				14.01455307006836,
				0,
				7.235800743103027
			]
		},
		{
			"children":[
				4,
				6,
				8,
				14,
				17,
				19,
				22
			],
			"name":"Empty.006"
		}
	],
	"materials":[
		{
			"alphaCutoff":1,
			"alphaMode":"MASK",
			"doubleSided":true,
			"name":"MT_Texture_Atlas_03.004",
			"pbrMetallicRoughness":{
				"baseColorTexture":{
					"index":0
				},
				"metallicFactor":0,
				"roughnessFactor":0
			}
		},
		{
			"doubleSided":true,
			"name":"Material.002",
			"pbrMetallicRoughness":{
				"baseColorTexture":{
					"index":1
				},
				"metallicFactor":0
			}
		},
		{
			"doubleSided":true,
			"name":"Color_Atlas.008",
			"pbrMetallicRoughness":{
				"baseColorTexture":{
					"index":2
				},
				"metallicFactor":0
			}
		},
		{
			"doubleSided":true,
			"name":"Texture_Atlas_02.004",
			"pbrMetallicRoughness":{
				"baseColorTexture":{
					"index":3
				},
				"metallicFactor":0
			}
		}
	],
	"meshes":[
		{
			"name":"Ardilla.003",
			"primitives":[
				{
					"attributes":{
						"POSITION":0,
						"NORMAL":1,
						"TEXCOORD_0":2
					},
					"indices":3,
					"material":0
				}
			]
		},
		{
			"name":"Jirafa.003",
			"primitives":[
				{
					"attributes":{
						"POSITION":4,
						"NORMAL":5,
						"TEXCOORD_0":6
					},
					"indices":3,
					"material":0
				}
			]
		},
		{
			"name":"Tigre.003",
			"primitives":[
				{
					"attributes":{
						"POSITION":7,
						"NORMAL":8,
						"TEXCOORD_0":9
					},
					"indices":3,
					"material":0
				}
			]
		},
		{
			"name":"Zebra.003",
			"primitives":[
				{
					"attributes":{
						"POSITION":10,
						"NORMAL":11,
						"TEXCOORD_0":12
					},
					"indices":3,
					"material":0
				}
			]
		},
		{
			"name":"Cartel_Asi_Esta_Bien.003",
			"primitives":[
				{
					"attributes":{
						"POSITION":13,
						"NORMAL":14,
						"TEXCOORD_0":15
					},
					"indices":16,
					"material":1
				}
			]
		},
		{
			"name":"Cartel_Disfruta_El_Camino.003",
			"primitives":[
				{
					"attributes":{
						"POSITION":17,
						"NORMAL":18,
						"TEXCOORD_0":19
					},
					"indices":16,
					"material":1
				}
			]
		},
		{
			"name":"Agua.004",
			"primitives":[
				{
					"attributes":{
						"POSITION":20,
						"NORMAL":21,
						"TEXCOORD_0":22
					},
					"indices":23,
					"material":2
				}
			]
		},
		{
			"name":"Jardin_collider_01.003",
			"primitives":[
				{
					"attributes":{
						"POSITION":24,
						"NORMAL":25,
						"TEXCOORD_0":26
					},
					"indices":27
				}
			]
		},
		{
			"name":"Jardin_collider_02.003",
			"primitives":[
				{
					"attributes":{
						"POSITION":28,
						"NORMAL":29,
						"TEXCOORD_0":30
					},
					"indices":27
				}
			]
		},
		{
			"name":"Plantas.003",
			"primitives":[
				{
					"attributes":{
						"POSITION":31,
						"NORMAL":32,
						"TEXCOORD_0":33
					},
					"indices":34,
					"material":2
				}
			]
		},
		{
			"name":"Rocas.003",
			"primitives":[
				{
					"attributes":{
						"POSITION":35,
						"NORMAL":36,
						"TEXCOORD_0":37
					},
					"indices":38,
					"material":2
				}
			]
		},
		{
			"name":"Jardin_Comedor.003",
			"primitives":[
				{
					"attributes":{
						"POSITION":39,
						"NORMAL":40,
						"TEXCOORD_0":41
					},
					"indices":42,
					"material":2
				}
			]
		},
		{
			"name":"Jardin_Comedor_collider.003",
			"primitives":[
				{
					"attributes":{
						"POSITION":43,
						"NORMAL":44,
						"TEXCOORD_0":45
					},
					"indices":27
				}
			]
		},
		{
			"name":"Foto_Perro_Caetano.003",
			"primitives":[
				{
					"attributes":{
						"POSITION":46,
						"NORMAL":47,
						"TEXCOORD_0":48
					},
					"indices":49,
					"material":3
				}
			]
		},
		{
			"name":"Planta.003",
			"primitives":[
				{
					"attributes":{
						"POSITION":50,
						"NORMAL":51,
						"TEXCOORD_0":52
					},
					"indices":53,
					"material":2
				}
			]
		},
		{
			"name":"Planta_collider.003",
			"primitives":[
				{
					"attributes":{
						"POSITION":54,
						"NORMAL":55,
						"TEXCOORD_0":56
					},
					"indices":27
				}
			]
		}
	],
	"textures":[
		{
			"sampler":0,
			"source":0
		},
		{
			"sampler":0,
			"source":1
		},
		{
			"sampler":0,
			"source":2
		},
		{
			"sampler":0,
			"source":3
		}
	],
	"images":[
		{
			"mimeType":"image/png",
			"name":"MT_Texture_Atlas_03",
			"uri":"MT_Texture_Atlas_03.png"
		},
		{
			"mimeType":"image/jpeg",
			"name":"MT_Texture_Atlas_01",
			"uri":"MT_Texture_Atlas_01.jpg"
		},
		{
			"mimeType":"image/png",
			"name":"MT_Color_Atlas",
			"uri":"MT_Color_Atlas.png"
		},
		{
			"mimeType":"image/png",
			"name":"MT_Texture_Atlas_02",
			"uri":"MT_Texture_Atlas_02.png"
		}
	],
	"accessors":[
		{
			"bufferView":0,
			"componentType":5126,
			"count":4,
			"max":[
				0.43487057089805603,
				0.502217173576355,
				1.6998873419993288e-08
			],
			"min":[
				-0.4348706007003784,
				0,
				-1.699887164363645e-08
			],
			"type":"VEC3"
		},
		{
			"bufferView":1,
			"componentType":5126,
			"count":4,
			"type":"VEC3"
		},
		{
			"bufferView":2,
			"componentType":5126,
			"count":4,
			"type":"VEC2"
		},
		{
			"bufferView":3,
			"componentType":5123,
			"count":6,
			"type":"SCALAR"
		},
		{
			"bufferView":4,
			"componentType":5126,
			"count":4,
			"max":[
				0.2242661565542221,
				0.46847236156463623,
				1.092314594330901e-08
			],
			"min":[
				-0.2242661565542221,
				0,
				-1.092314594330901e-08
			],
			"type":"VEC3"
		},
		{
			"bufferView":5,
			"componentType":5126,
			"count":4,
			"type":"VEC3"
		},
		{
			"bufferView":6,
			"componentType":5126,
			"count":4,
			"type":"VEC2"
		},
		{
			"bufferView":7,
			"componentType":5126,
			"count":4,
			"max":[
				0.656408429145813,
				0.6136986017227173,
				2.1855694143368964e-08
			],
			"min":[
				-0.656408429145813,
				0,
				-2.1855692367012125e-08
			],
			"type":"VEC3"
		},
		{
			"bufferView":8,
			"componentType":5126,
			"count":4,
			"type":"VEC3"
		},
		{
			"bufferView":9,
			"componentType":5126,
			"count":4,
			"type":"VEC2"
		},
		{
			"bufferView":10,
			"componentType":5126,
			"count":4,
			"max":[
				0.5,
				0.8875557780265808,
				4.371138828673793e-08
			],
			"min":[
				-0.5,
				0,
				0
			],
			"type":"VEC3"
		},
		{
			"bufferView":11,
			"componentType":5126,
			"count":4,
			"type":"VEC3"
		},
		{
			"bufferView":12,
			"componentType":5126,
			"count":4,
			"type":"VEC2"
		},
		{
			"bufferView":13,
			"componentType":5126,
			"count":48,
			"max":[
				0.3146883249282837,
				2.000757932662964,
				0.04322059452533722
			],
			"min":[
				-0.3146883249282837,
				0,
				-0.01992063783109188
			],
			"type":"VEC3"
		},
		{
			"bufferView":14,
			"componentType":5126,
			"count":48,
			"type":"VEC3"
		},
		{
			"bufferView":15,
			"componentType":5126,
			"count":48,
			"type":"VEC2"
		},
		{
			"bufferView":16,
			"componentType":5123,
			"count":72,
			"type":"SCALAR"
		},
		{
			"bufferView":17,
			"componentType":5126,
			"count":48,
			"max":[
				0.3146883249282837,
				2.000757932662964,
				0.04322059452533722
			],
			"min":[
				-0.3146883249282837,
				0,
				-0.01992063783109188
			],
			"type":"VEC3"
		},
		{
			"bufferView":18,
			"componentType":5126,
			"count":48,
			"type":"VEC3"
		},
		{
			"bufferView":19,
			"componentType":5126,
			"count":48,
			"type":"VEC2"
		},
		{
			"bufferView":20,
			"componentType":5126,
			"count":588,
			"max":[
				1.9964901208877563,
				5.051758766174316,
				2.691066265106201
			],
			"min":[
				-1.9964901208877563,
				1.6137871742248535,
				-4.281808853149414
			],
			"type":"VEC3"
		},
		{
			"bufferView":21,
			"componentType":5126,
			"count":588,
			"type":"VEC3"
		},
		{
			"bufferView":22,
			"componentType":5126,
			"count":588,
			"type":"VEC2"
		},
		{
			"bufferView":23,
			"componentType":5123,
			"count":801,
			"type":"SCALAR"
		},
		{
			"bufferView":24,
			"componentType":5126,
			"count":24,
			"max":[
				3.4169540405273438,
				2.066804885864258,
				4.828453063964844
			],
			"min":[
				-3.4169540405273438,
				0,
				-4.598968505859375
			],
			"type":"VEC3"
		},
		{
			"bufferView":25,
			"componentType":5126,
			"count":24,
			"type":"VEC3"
		},
		{
			"bufferView":26,
			"componentType":5126,
			"count":24,
			"type":"VEC2"
		},
		{
			"bufferView":27,
			"componentType":5123,
			"count":36,
			"type":"SCALAR"
		},
		{
			"bufferView":28,
			"componentType":5126,
			"count":24,
			"max":[
				2.7682361602783203,
				5.180816650390625,
				-1.4798548221588135
			],
			"min":[
				-2.7682361602783203,
				2.066804885864258,
				-4.793430328369141
			],
			"type":"VEC3"
		},
		{
			"bufferView":29,
			"componentType":5126,
			"count":24,
			"type":"VEC3"
		},
		{
			"bufferView":30,
			"componentType":5126,
			"count":24,
			"type":"VEC2"
		},
		{
			"bufferView":31,
			"componentType":5126,
			"count":1696,
			"max":[
				3.7227039337158203,
				6.08353328704834,
				3.984933853149414
			],
			"min":[
				-3.547067642211914,
				1.2855796813964844,
				-2.0935897827148438
			],
			"type":"VEC3"
		},
		{
			"bufferView":32,
			"componentType":5126,
			"count":1696,
			"type":"VEC3"
		},
		{
			"bufferView":33,
			"componentType":5126,
			"count":1696,
			"type":"VEC2"
		},
		{
			"bufferView":34,
			"componentType":5123,
			"count":2088,
			"type":"SCALAR"
		},
		{
			"bufferView":35,
			"componentType":5126,
			"count":2152,
			"max":[
				4.278192520141602,
				5.456036567687988,
				5.631547927856445
			],
			"min":[
				-4.23790168762207,
				-0.011489629745483398,
				-5.027951240539551
			],
			"type":"VEC3"
		},
		{
			"bufferView":36,
			"componentType":5126,
			"count":2152,
			"type":"VEC3"
		},
		{
			"bufferView":37,
			"componentType":5126,
			"count":2152,
			"type":"VEC2"
		},
		{
			"bufferView":38,
			"componentType":5123,
			"count":2688,
			"type":"SCALAR"
		},
		{
			"bufferView":39,
			"componentType":5126,
			"count":4295,
			"max":[
				3.000737190246582,
				2.8666763305664062,
				3.5331854820251465
			],
			"min":[
				-1.7713853120803833,
				-0.6196364164352417,
				-5.683401107788086
			],
			"type":"VEC3"
		},
		{
			"bufferView":40,
			"componentType":5126,
			"count":4295,
			"type":"VEC3"
		},
		{
			"bufferView":41,
			"componentType":5126,
			"count":4295,
			"type":"VEC2"
		},
		{
			"bufferView":42,
			"componentType":5123,
			"count":5322,
			"type":"SCALAR"
		},
		{
			"bufferView":43,
			"componentType":5126,
			"count":24,
			"max":[
				6.0048723220825195,
				2,
				1.9452775716781616
			],
			"min":[
				-6.0048723220825195,
				0,
				-1.9452775716781616
			],
			"type":"VEC3"
		},
		{
			"bufferView":44,
			"componentType":5126,
			"count":24,
			"type":"VEC3"
		},
		{
			"bufferView":45,
			"componentType":5126,
			"count":24,
			"type":"VEC2"
		},
		{
			"bufferView":46,
			"componentType":5126,
			"count":12,
			"max":[
				0.2222156971693039,
				0.2975579798221588,
				0.01694449968636036
			],
			"min":[
				-0.22221575677394867,
				-4.326698999079781e-08,
				-1.677681815692722e-08
			],
			"type":"VEC3"
		},
		{
			"bufferView":47,
			"componentType":5126,
			"count":12,
			"type":"VEC3"
		},
		{
			"bufferView":48,
			"componentType":5126,
			"count":12,
			"type":"VEC2"
		},
		{
			"bufferView":49,
			"componentType":5123,
			"count":18,
			"type":"SCALAR"
		},
		{
			"bufferView":50,
			"componentType":5126,
			"count":2316,
			"max":[
				0.18258054554462433,
				1.199961543083191,
				0.24822211265563965
			],
			"min":[
				-0.19474439322948456,
				0,
				-0.2402331829071045
			],
			"type":"VEC3"
		},
		{
			"bufferView":51,
			"componentType":5126,
			"count":2316,
			"type":"VEC3"
		},
		{
			"bufferView":52,
			"componentType":5126,
			"count":2316,
			"type":"VEC2"
		},
		{
			"bufferView":53,
			"componentType":5123,
			"count":3126,
			"type":"SCALAR"
		},
		{
			"bufferView":54,
			"componentType":5126,
			"count":24,
			"max":[
				0.15767377614974976,
				1.0660109519958496,
				0.15767377614974976
			],
			"min":[
				-0.15767377614974976,
				0,
				-0.15767377614974976
			],
			"type":"VEC3"
		},
		{
			"bufferView":55,
			"componentType":5126,
			"count":24,
			"type":"VEC3"
		},
		{
			"bufferView":56,
			"componentType":5126,
			"count":24,
			"type":"VEC2"
		}
	],
	"bufferViews":[
		{
			"buffer":0,
			"byteLength":48,
			"byteOffset":0,
			"target":34962
		},
		{
			"buffer":0,
			"byteLength":48,
			"byteOffset":48,
			"target":34962
		},
		{
			"buffer":0,
			"byteLength":32,
			"byteOffset":96,
			"target":34962
		},
		{
			"buffer":0,
			"byteLength":12,
			"byteOffset":128,
			"target":34963
		},
		{
			"buffer":0,
			"byteLength":48,
			"byteOffset":140,
			"target":34962
		},
		{
			"buffer":0,
			"byteLength":48,
			"byteOffset":188,
			"target":34962
		},
		{
			"buffer":0,
			"byteLength":32,
			"byteOffset":236,
			"target":34962
		},
		{
			"buffer":0,
			"byteLength":48,
			"byteOffset":268,
			"target":34962
		},
		{
			"buffer":0,
			"byteLength":48,
			"byteOffset":316,
			"target":34962
		},
		{
			"buffer":0,
			"byteLength":32,
			"byteOffset":364,
			"target":34962
		},
		{
			"buffer":0,
			"byteLength":48,
			"byteOffset":396,
			"target":34962
		},
		{
			"buffer":0,
			"byteLength":48,
			"byteOffset":444,
			"target":34962
		},
		{
			"buffer":0,
			"byteLength":32,
			"byteOffset":492,
			"target":34962
		},
		{
			"buffer":0,
			"byteLength":576,
			"byteOffset":524,
			"target":34962
		},
		{
			"buffer":0,
			"byteLength":576,
			"byteOffset":1100,
			"target":34962
		},
		{
			"buffer":0,
			"byteLength":384,
			"byteOffset":1676,
			"target":34962
		},
		{
			"buffer":0,
			"byteLength":144,
			"byteOffset":2060,
			"target":34963
		},
		{
			"buffer":0,
			"byteLength":576,
			"byteOffset":2204,
			"target":34962
		},
		{
			"buffer":0,
			"byteLength":576,
			"byteOffset":2780,
			"target":34962
		},
		{
			"buffer":0,
			"byteLength":384,
			"byteOffset":3356,
			"target":34962
		},
		{
			"buffer":0,
			"byteLength":7056,
			"byteOffset":3740,
			"target":34962
		},
		{
			"buffer":0,
			"byteLength":7056,
			"byteOffset":10796,
			"target":34962
		},
		{
			"buffer":0,
			"byteLength":4704,
			"byteOffset":17852,
			"target":34962
		},
		{
			"buffer":0,
			"byteLength":1602,
			"byteOffset":22556,
			"target":34963
		},
		{
			"buffer":0,
			"byteLength":288,
			"byteOffset":24160,
			"target":34962
		},
		{
			"buffer":0,
			"byteLength":288,
			"byteOffset":24448,
			"target":34962
		},
		{
			"buffer":0,
			"byteLength":192,
			"byteOffset":24736,
			"target":34962
		},
		{
			"buffer":0,
			"byteLength":72,
			"byteOffset":24928,
			"target":34963
		},
		{
			"buffer":0,
			"byteLength":288,
			"byteOffset":25000,
			"target":34962
		},
		{
			"buffer":0,
			"byteLength":288,
			"byteOffset":25288,
			"target":34962
		},
		{
			"buffer":0,
			"byteLength":192,
			"byteOffset":25576,
			"target":34962
		},
		{
			"buffer":0,
			"byteLength":20352,
			"byteOffset":25768,
			"target":34962
		},
		{
			"buffer":0,
			"byteLength":20352,
			"byteOffset":46120,
			"target":34962
		},
		{
			"buffer":0,
			"byteLength":13568,
			"byteOffset":66472,
			"target":34962
		},
		{
			"buffer":0,
			"byteLength":4176,
			"byteOffset":80040,
			"target":34963
		},
		{
			"buffer":0,
			"byteLength":25824,
			"byteOffset":84216,
			"target":34962
		},
		{
			"buffer":0,
			"byteLength":25824,
			"byteOffset":110040,
			"target":34962
		},
		{
			"buffer":0,
			"byteLength":17216,
			"byteOffset":135864,
			"target":34962
		},
		{
			"buffer":0,
			"byteLength":5376,
			"byteOffset":153080,
			"target":34963
		},
		{
			"buffer":0,
			"byteLength":51540,
			"byteOffset":158456,
			"target":34962
		},
		{
			"buffer":0,
			"byteLength":51540,
			"byteOffset":209996,
			"target":34962
		},
		{
			"buffer":0,
			"byteLength":34360,
			"byteOffset":261536,
			"target":34962
		},
		{
			"buffer":0,
			"byteLength":10644,
			"byteOffset":295896,
			"target":34963
		},
		{
			"buffer":0,
			"byteLength":288,
			"byteOffset":306540,
			"target":34962
		},
		{
			"buffer":0,
			"byteLength":288,
			"byteOffset":306828,
			"target":34962
		},
		{
			"buffer":0,
			"byteLength":192,
			"byteOffset":307116,
			"target":34962
		},
		{
			"buffer":0,
			"byteLength":144,
			"byteOffset":307308,
			"target":34962
		},
		{
			"buffer":0,
			"byteLength":144,
			"byteOffset":307452,
			"target":34962
		},
		{
			"buffer":0,
			"byteLength":96,
			"byteOffset":307596,
			"target":34962
		},
		{
			"buffer":0,
			"byteLength":36,
			"byteOffset":307692,
			"target":34963
		},
		{
			"buffer":0,
			"byteLength":27792,
			"byteOffset":307728,
			"target":34962
		},
		{
			"buffer":0,
			"byteLength":27792,
			"byteOffset":335520,
			"target":34962
		},
		{
			"buffer":0,
			"byteLength":18528,
			"byteOffset":363312,
			"target":34962
		},
		{
			"buffer":0,
			"byteLength":6252,
			"byteOffset":381840,
			"target":34963
		},
		{
			"buffer":0,
			"byteLength":288,
			"byteOffset":388092,
			"target":34962
		},
		{
			"buffer":0,
			"byteLength":288,
			"byteOffset":388380,
			"target":34962
		},
		{
			"buffer":0,
			"byteLength":192,
			"byteOffset":388668,
			"target":34962
		}
	],
	"samplers":[
		{
			"magFilter":9729,
			"minFilter":9987
		}
	],
	"buffers":[
		{
			"byteLength":388860,
			"uri":"static4.bin"
		}
	]
}
