{
    "asset" : {
        "copyright" : "Eibriel",
        "generator" : "Khronos glTF Blender I/O v1.5.17",
        "version" : "2.0"
    },
    "scene" : 0,
    "scenes" : [
        {
            "name" : "Scene",
            "nodes" : [
                0,
                1,
                2,
                3
            ]
        }
    ],
    "nodes" : [
        {
            "mesh" : 0,
            "name" : "Telefono_Columna"
        },
        {
            "mesh" : 1,
            "name" : "Telefono_Plantas"
        },
        {
            "mesh" : 2,
            "name" : "Telefono_Aparato"
        },
        {
            "mesh" : 3,
            "name" : "Telefono_Collider"
        }
    ],
    "materials" : [
        {
            "doubleSided" : true,
            "name" : "Color_Atlas",
            "pbrMetallicRoughness" : {
                "baseColorTexture" : {
                    "index" : 0
                },
                "metallicFactor" : 0
            }
        },
        {
            "doubleSided" : true,
            "emissiveFactor" : [
                1,
                1,
                1
            ],
            "emissiveTexture" : {
                "index" : 1
            },
            "name" : "Emission.001",
            "pbrMetallicRoughness" : {
                "baseColorTexture" : {
                    "index" : 2
                },
                "metallicFactor" : 0,
                "roughnessFactor" : 0.5
            }
        }
    ],
    "meshes" : [
        {
            "name" : "Telefono_Columna",
            "primitives" : [
                {
                    "attributes" : {
                        "POSITION" : 0,
                        "NORMAL" : 1,
                        "TEXCOORD_0" : 2
                    },
                    "indices" : 3,
                    "material" : 0
                }
            ]
        },
        {
            "name" : "Telefono_Plantas",
            "primitives" : [
                {
                    "attributes" : {
                        "POSITION" : 4,
                        "NORMAL" : 5,
                        "TEXCOORD_0" : 6
                    },
                    "indices" : 7,
                    "material" : 0
                }
            ]
        },
        {
            "name" : "Telefono_Aparato",
            "primitives" : [
                {
                    "attributes" : {
                        "POSITION" : 8,
                        "NORMAL" : 9,
                        "TEXCOORD_0" : 10
                    },
                    "indices" : 11,
                    "material" : 0
                },
                {
                    "attributes" : {
                        "POSITION" : 12,
                        "NORMAL" : 13,
                        "TEXCOORD_0" : 14
                    },
                    "indices" : 15,
                    "material" : 1
                }
            ]
        },
        {
            "name" : "Telefono_Collider",
            "primitives" : [
                {
                    "attributes" : {
                        "POSITION" : 16,
                        "NORMAL" : 17,
                        "TEXCOORD_0" : 18
                    },
                    "indices" : 19
                }
            ]
        }
    ],
    "textures" : [
        {
            "sampler" : 0,
            "source" : 0
        },
        {
            "sampler" : 0,
            "source" : 0
        },
        {
            "sampler" : 0,
            "source" : 0
        }
    ],
    "images" : [
        {
            "mimeType" : "image/png",
            "name" : "MT_Color_Atlas",
            "uri" : "textures/MT_Color_Atlas.png"
        }
    ],
    "accessors" : [
        {
            "bufferView" : 0,
            "componentType" : 5126,
            "count" : 774,
            "max" : [
                0.14854848384857178,
                0.6537125706672668,
                0.14842960238456726
            ],
            "min" : [
                -0.14854848384857178,
                -0.0022537894546985626,
                -0.14841586351394653
            ],
            "type" : "VEC3"
        },
        {
            "bufferView" : 1,
            "componentType" : 5126,
            "count" : 774,
            "type" : "VEC3"
        },
        {
            "bufferView" : 2,
            "componentType" : 5126,
            "count" : 774,
            "type" : "VEC2"
        },
        {
            "bufferView" : 3,
            "componentType" : 5123,
            "count" : 1116,
            "type" : "SCALAR"
        },
        {
            "bufferView" : 4,
            "componentType" : 5126,
            "count" : 718,
            "max" : [
                0.47786083817481995,
                0.8459734916687012,
                0.11695830523967743
            ],
            "min" : [
                -0.1989193558692932,
                0.5493066906929016,
                -0.20155319571495056
            ],
            "type" : "VEC3"
        },
        {
            "bufferView" : 5,
            "componentType" : 5126,
            "count" : 718,
            "type" : "VEC3"
        },
        {
            "bufferView" : 6,
            "componentType" : 5126,
            "count" : 718,
            "type" : "VEC2"
        },
        {
            "bufferView" : 7,
            "componentType" : 5123,
            "count" : 1056,
            "type" : "SCALAR"
        },
        {
            "bufferView" : 8,
            "componentType" : 5126,
            "count" : 954,
            "max" : [
                0.15413688123226166,
                2.770458698272705,
                0.194753959774971
            ],
            "min" : [
                -0.13941267132759094,
                0.7593511939048767,
                -0.11011435091495514
            ],
            "type" : "VEC3"
        },
        {
            "bufferView" : 9,
            "componentType" : 5126,
            "count" : 954,
            "type" : "VEC3"
        },
        {
            "bufferView" : 10,
            "componentType" : 5126,
            "count" : 954,
            "type" : "VEC2"
        },
        {
            "bufferView" : 11,
            "componentType" : 5123,
            "count" : 1707,
            "type" : "SCALAR"
        },
        {
            "bufferView" : 12,
            "componentType" : 5126,
            "count" : 376,
            "max" : [
                0.2624031603336334,
                1.0805115699768066,
                0.21496401727199554
            ],
            "min" : [
                -0.28788119554519653,
                0.8768364787101746,
                0.050090156495571136
            ],
            "type" : "VEC3"
        },
        {
            "bufferView" : 13,
            "componentType" : 5126,
            "count" : 376,
            "type" : "VEC3"
        },
        {
            "bufferView" : 14,
            "componentType" : 5126,
            "count" : 376,
            "type" : "VEC2"
        },
        {
            "bufferView" : 15,
            "componentType" : 5123,
            "count" : 420,
            "type" : "SCALAR"
        },
        {
            "bufferView" : 16,
            "componentType" : 5126,
            "count" : 24,
            "max" : [
                0.15855753421783447,
                1.1217372417449951,
                0.15855753421783447
            ],
            "min" : [
                -0.15855753421783447,
                0,
                -0.15855753421783447
            ],
            "type" : "VEC3"
        },
        {
            "bufferView" : 17,
            "componentType" : 5126,
            "count" : 24,
            "type" : "VEC3"
        },
        {
            "bufferView" : 18,
            "componentType" : 5126,
            "count" : 24,
            "type" : "VEC2"
        },
        {
            "bufferView" : 19,
            "componentType" : 5123,
            "count" : 36,
            "type" : "SCALAR"
        }
    ],
    "bufferViews" : [
        {
            "buffer" : 0,
            "byteLength" : 9288,
            "byteOffset" : 0
        },
        {
            "buffer" : 0,
            "byteLength" : 9288,
            "byteOffset" : 9288
        },
        {
            "buffer" : 0,
            "byteLength" : 6192,
            "byteOffset" : 18576
        },
        {
            "buffer" : 0,
            "byteLength" : 2232,
            "byteOffset" : 24768
        },
        {
            "buffer" : 0,
            "byteLength" : 8616,
            "byteOffset" : 27000
        },
        {
            "buffer" : 0,
            "byteLength" : 8616,
            "byteOffset" : 35616
        },
        {
            "buffer" : 0,
            "byteLength" : 5744,
            "byteOffset" : 44232
        },
        {
            "buffer" : 0,
            "byteLength" : 2112,
            "byteOffset" : 49976
        },
        {
            "buffer" : 0,
            "byteLength" : 11448,
            "byteOffset" : 52088
        },
        {
            "buffer" : 0,
            "byteLength" : 11448,
            "byteOffset" : 63536
        },
        {
            "buffer" : 0,
            "byteLength" : 7632,
            "byteOffset" : 74984
        },
        {
            "buffer" : 0,
            "byteLength" : 3414,
            "byteOffset" : 82616
        },
        {
            "buffer" : 0,
            "byteLength" : 4512,
            "byteOffset" : 86032
        },
        {
            "buffer" : 0,
            "byteLength" : 4512,
            "byteOffset" : 90544
        },
        {
            "buffer" : 0,
            "byteLength" : 3008,
            "byteOffset" : 95056
        },
        {
            "buffer" : 0,
            "byteLength" : 840,
            "byteOffset" : 98064
        },
        {
            "buffer" : 0,
            "byteLength" : 288,
            "byteOffset" : 98904
        },
        {
            "buffer" : 0,
            "byteLength" : 288,
            "byteOffset" : 99192
        },
        {
            "buffer" : 0,
            "byteLength" : 192,
            "byteOffset" : 99480
        },
        {
            "buffer" : 0,
            "byteLength" : 72,
            "byteOffset" : 99672
        }
    ],
    "samplers" : [
        {
            "magFilter" : 9729,
            "minFilter" : 9987
        }
    ],
    "buffers" : [
        {
            "byteLength" : 99744,
            "uri" : "telefono.bin"
        }
    ]
}
